<?xml version="1.0" encoding="UTF-8" standalone="no"?>
<!-- Created with Inkscape (http://www.inkscape.org/) -->

<svg
   width="200"
   height="200"
   viewBox="0 0 52.916668 52.916666"
   version="1.1"
   id="svg8"
   inkscape:version="1.3 (0e150ed6c4, 2023-07-21)"
   sodipodi:docname="anarchy.svg"
   xml:space="preserve"
   xmlns:inkscape="http://www.inkscape.org/namespaces/inkscape"
   xmlns:sodipodi="http://sodipodi.sourceforge.net/DTD/sodipodi-0.dtd"
   xmlns="http://www.w3.org/2000/svg"
   xmlns:svg="http://www.w3.org/2000/svg"
   xmlns:rdf="http://www.w3.org/1999/02/22-rdf-syntax-ns#"
   xmlns:cc="http://creativecommons.org/ns#"
   xmlns:dc="http://purl.org/dc/elements/1.1/"><sodipodi:namedview
     id="base"
     pagecolor="#ffffff"
     bordercolor="#666666"
     borderopacity="1.0"
     inkscape:pageopacity="0.0"
     inkscape:pageshadow="2"
     inkscape:zoom="4"
     inkscape:cx="61.000001"
     inkscape:cy="92.625001"
     inkscape:document-units="px"
     inkscape:current-layer="layer1"
     showgrid="false"
     fit-margin-top="0"
     fit-margin-left="0"
     fit-margin-right="0"
     fit-margin-bottom="0"
     inkscape:window-width="1920"
     inkscape:window-height="1137"
     inkscape:window-x="-8"
     inkscape:window-y="-8"
     inkscape:window-maximized="1"
     showguides="false"
     inkscape:object-nodes="true"
     units="px"
     inkscape:snap-page="true"
     inkscape:showpageshadow="2"
     inkscape:pagecheckerboard="0"
     inkscape:deskcolor="#d1d1d1" /><defs
     id="defs2"><inkscape:path-effect
       effect="envelope"
       id="path-effect4658"
       is_visible="true"
       yy="true"
       xx="true"
       bendpath1="m -199.08406,108.42369 h 7.0057"
       bendpath2="m -192.07836,108.42369 v 6.75242"
       bendpath3="m -199.08406,115.17611 h 7.0057"
       bendpath4="m -199.08406,108.42369 v 6.75242" /><inkscape:path-effect
       effect="bend_path"
       id="path-effect4656"
       is_visible="true"
       bendpath="m -192.00142,114.60623 c 2.12577,-0.53066 4.48261,0.85111 7.0057,0"
       prop_scale="1"
       scale_y_rel="false"
       vertical="false"
       bendpath-nodetypes="cc" /><inkscape:path-effect
       effect="bounding_box"
       id="path-effect4654"
       is_visible="true"
       linkedpath=""
       visualbounds="false" /></defs><metadata
     id="metadata5"><rdf:RDF><cc:Work
         rdf:about=""><dc:format>image/svg+xml</dc:format><dc:type
           rdf:resource="http://purl.org/dc/dcmitype/StillImage" /></cc:Work></rdf:RDF></metadata><g
     inkscape:label="Layer 1"
     inkscape:groupmode="layer"
     id="layer1"
     transform="translate(98.048812,-95.14345)"><g
       style="stroke-width:0.5"
       transform="matrix(2,0,0,2,-98.048812,95.143449)"
       id="g5175"><rect
         y="-1.110223e-16"
         x="0"
         height="26.458334"
         width="26.458334"
         id="rect5163"
         style="opacity:1;fill:#212121;fill-opacity:1;fill-rule:nonzero;stroke:none;stroke-width:0.25;stroke-linecap:butt;stroke-linejoin:round;stroke-miterlimit:4;stroke-dasharray:none;stroke-dashoffset:0;stroke-opacity:0.90944878;paint-order:normal"
         rx="1.984375"
         ry="1.984375" /><rect
         style="opacity:1;fill:#ff00ff;fill-opacity:1;fill-rule:nonzero;stroke:none;stroke-width:0.25;stroke-linecap:butt;stroke-linejoin:round;stroke-miterlimit:4;stroke-dasharray:none;stroke-dashoffset:0;stroke-opacity:0.90944878;paint-order:normal"
         id="rect5165"
         width="23.8125"
         height="23.8125"
         x="1.322917"
         y="1.322917"
         rx="1.3229166"
         ry="1.3229166"
         inkscape:label="inside_colour" /><path
         style="opacity:1;fill:#222222;fill-opacity:1;fill-rule:nonzero;stroke:none;stroke-width:0.24999997;stroke-linecap:butt;stroke-linejoin:round;stroke-miterlimit:4;stroke-dasharray:none;stroke-dashoffset:0;stroke-opacity:0.90944878;paint-order:normal"
         d="m 0.72760492,18.520836 v 4.167188 c 0,1.539081 1.23904398,2.778124 2.77812498,2.778124 H 22.952604 c 1.539081,0 2.778125,-1.239043 2.778125,-2.778124 v -4.167188 z"
         id="rect5205-3-6"
         inkscape:connector-curvature="0" /><text
         xml:space="preserve"
         style="font-style:normal;font-variant:normal;font-weight:normal;font-stretch:normal;font-size:5.0901px;font-family:'Vistol Sans';-inkscape-font-specification:'Vistol Sans, Normal';font-variant-ligatures:normal;font-variant-caps:normal;font-variant-numeric:normal;font-variant-east-asian:normal;fill:#ededed;fill-opacity:1;stroke-width:0.34705"
         x="1.309833"
         y="23.739906"
         id="text1"><tspan
           sodipodi:role="line"
           id="tspan1"
           style="font-style:normal;font-variant:normal;font-weight:normal;font-stretch:normal;font-size:5.0901px;font-family:'Vistol Sans';-inkscape-font-specification:'Vistol Sans, Normal';font-variant-ligatures:normal;font-variant-caps:normal;font-variant-numeric:normal;font-variant-east-asian:normal;fill:#ededed;fill-opacity:1;stroke-width:0.34705"
           x="1.309833"
           y="23.739906">ANARCHY</tspan></text></g><g
       style="display:none;stroke-width:0.5"
       id="g5375"
       transform="matrix(2,0,0,2,298.8262,161.81845)"><rect
         ry="1.984375"
         rx="1.984375"
         style="opacity:1;fill:#222222;fill-opacity:1;fill-rule:nonzero;stroke:none;stroke-width:0.25;stroke-linecap:butt;stroke-linejoin:round;stroke-miterlimit:4;stroke-dasharray:none;stroke-dashoffset:0;stroke-opacity:0.909449;paint-order:normal"
         id="rect5363"
         width="26.458334"
         height="26.458334"
         x="0"
         y="-1.110223e-16" /><rect
         ry="1.3229166"
         rx="1.3229166"
         y="1.322917"
         x="1.322917"
         height="23.8125"
         width="23.8125"
         id="rect5365"
         style="opacity:1;fill:#9c27b0;fill-opacity:1;fill-rule:nonzero;stroke:none;stroke-width:0.25;stroke-linecap:butt;stroke-linejoin:round;stroke-miterlimit:4;stroke-dasharray:none;stroke-dashoffset:0;stroke-opacity:0.909449;paint-order:normal" /><path
         inkscape:connector-curvature="0"
         style="font-style:normal;font-variant:normal;font-weight:bold;font-stretch:normal;font-size:4.23333px;line-height:4.23333px;font-family:Montserrat;-inkscape-font-specification:'Montserrat Bold';text-align:center;text-anchor:middle;opacity:1;fill:#222222;fill-opacity:1;fill-rule:nonzero;stroke:none;stroke-width:0.25;stroke-linecap:butt;stroke-linejoin:round;stroke-miterlimit:4;stroke-dasharray:none;stroke-dashoffset:0;stroke-opacity:0.909449;paint-order:normal"
         d="m 10.804879,3.4467321 a 0.15871531,0.15871531 0 0 0 -0.136382,0.1146841 0.15871531,0.15871531 0 0 0 0,0.00252 C 10.140525,3.6384432 9.6416792,3.965285 9.1881282,4.6909495 8.7115532,5.4663873 8.3524323,6.579977 8.0772328,7.9666052 6.7809381,7.5183239 5.6533861,7.2662043 4.7408247,7.2822132 3.7816738,7.2991518 3.1147858,7.5444251 2.8147338,8.0695121 a 0.15871531,0.15871531 0 0 0 0,0.00253 C 2.7114104,8.2598824 2.6603742,8.4734102 2.6603742,8.7068424 c 0,0.4210159 0.1552856,0.8916088 0.4475822,1.4177576 0.4325522,0.800072 1.2077345,1.656709 2.2422503,2.565227 -1.0505355,0.923913 -1.835515,1.786695 -2.2682869,2.580106 a 0.15871531,0.15871531 0 0 0 0,0.002 c -0.2751035,0.525219 -0.4215456,0.985636 -0.4215456,1.389797 0,0.23355 0.051235,0.447071 0.1543596,0.634798 a 0.15871531,0.15871531 0 0 0 0,0.0025 c 0.291392,0.51696 0.943761,0.765711 1.8864159,0.799078 a 0.15871531,0.15871531 0 0 0 0.00252,0 c 0.9137959,0.02385 2.0535277,-0.233556 3.3717428,-0.696171 0.2741331,1.348491 0.6233467,2.453038 1.0867197,3.23598 a 0.15871531,0.15871531 0 0 0 0,0.002 c 0.500317,0.825527 1.0505898,1.281995 1.6589068,1.281995 0.601456,0 1.143394,-0.456502 1.635347,-1.281995 a 0.15871531,0.15871531 0 0 0 0,-0.002 c 0.463775,-0.783622 0.815602,-1.888301 1.089818,-3.238461 1.329834,0.457616 2.472598,0.71099 3.381042,0.686873 0.941434,-0.02479 1.593573,-0.269105 1.885797,-0.78482 v -0.0025 c 0.112868,-0.188987 0.168617,-0.409658 0.168617,-0.651537 0,-0.404148 -0.146131,-0.860011 -0.421545,-1.377461 a 0.15871531,0.15871531 0 0 0 0,-0.0025 c -0.442823,-0.797089 -1.23398,-1.657456 -2.293703,-2.579495 1.035751,-0.909437 1.822657,-1.768065 2.270146,-2.575146 h -0.0025 c 0.292427,-0.5180303 0.447581,-0.9804659 0.447581,-1.3941992 0,-0.2419357 -0.05577,-0.4625695 -0.168619,-0.6515355 C 18.512152,7.5425303 17.843709,7.2989275 16.877611,7.2822708 15.967425,7.2660519 14.83776,7.5183689 13.538724,7.964183 13.2636,6.5792764 12.907093,5.4657804 12.430927,4.6910059 11.93891,3.8904337 11.406296,3.446827 10.820996,3.446827 a 0.15871531,0.15871531 0 0 0 -0.01612,0 z m 0.01612,0.9373179 c 0.150341,0 0.307715,0.067598 0.482918,0.2318503 0.175202,0.1642516 0.359966,0.4245219 0.545528,0.7798595 0.346282,0.6549206 0.623917,1.637559 0.838751,2.8683679 C 12.063219,8.5044145 11.441451,8.7755104 10.823482,9.0818019 10.1896,8.7745053 9.5580522,8.5050791 8.9302472,8.2641277 9.1450812,7.0333188 9.4227172,6.0506804 9.7689982,5.3957598 9.9543492,5.040836 10.140769,4.7800283 10.319487,4.6159003 10.498204,4.4517709 10.66064,4.38405 10.821003,4.38405 Z M 4.7637673,8.1296051 c 0.0911,-0.00115 0.1872412,6.346e-4 0.2888825,0.00565 0.7474087,0.037804 1.7184191,0.2872155 2.8559695,0.7048491 C 7.8091824,9.5057349 7.7347419,10.1847 7.6885481,10.876545 7.1087668,11.268017 6.5593987,11.671897 6.038942,12.090331 5.1011119,11.31416 4.3963857,10.596689 3.988867,9.9627665 a 0.15871531,0.15871531 0 0 0 0,-0.00253 C 3.7681673,9.6213132 3.6336709,9.3292372 3.580961,9.0911211 3.5282498,8.8530027 3.5516668,8.6760009 3.6373786,8.5331928 a 0.15871531,0.15871531 0 0 0 0.00252,-0.00253 c 0.077723,-0.1367995 0.2165721,-0.2425416 0.4500609,-0.3136849 0.1751178,-0.053358 0.4005682,-0.083788 0.673853,-0.0874 z m 12.1033117,0 c 0.27339,0.00358 0.499447,0.033915 0.676332,0.0874 0.234475,0.070887 0.376969,0.1768772 0.458741,0.313679 0.08224,0.1423488 0.106741,0.319181 0.05208,0.5579284 -0.05467,0.2387484 -0.192044,0.5324907 -0.412866,0.8716061 a 0.15871531,0.15871531 0 0 0 0,0.00253 c -0.407388,0.6412594 -1.116485,1.3628534 -2.061855,2.1393474 -0.520806,-0.418729 -1.06877,-0.824565 -1.648986,-1.216282 -0.04645,-0.698312 -0.126237,-1.3800514 -0.23247,-2.0457355 1.137528,-0.4174882 2.114328,-0.6667861 2.877667,-0.7048491 h 0.002 c 0.10164,-0.00496 0.198374,-0.00669 0.289502,-0.00565 z m -4.035678,1.0433264 c 0.04584,0.3539495 0.08088,0.7148688 0.112198,1.0798995 -0.175573,-0.108229 -0.351341,-0.216193 -0.526931,-0.327937 a 0.15871531,0.15871531 0 0 0 -0.0069,-0.00427 C 12.214625,9.8121648 12.028243,9.7125709 11.840155,9.6112854 12.174114,9.458371 12.504862,9.3113246 12.831407,9.1730008 Z m -4.0418758,0.00935 c 0.326574,0.1336185 0.657179,0.2795376 0.991253,0.4314618 -0.186048,0.1011782 -0.370227,0.2010224 -0.559789,0.3093389 a 0.15871531,0.15871531 0 0 0 -0.0049,0.00196 c -0.182855,0.1129498 -0.361907,0.2210548 -0.541185,0.3304198 0.03138,-0.364238 0.06877,-0.7236537 0.114684,-1.0730809 z m 2.0060608,0.9373175 c 0.380181,0.198616 0.760401,0.400801 1.140652,0.613721 0.371731,0.21239 0.734257,0.434199 1.091678,0.660834 0.02131,0.42509 0.03285,0.856072 0.03285,1.295632 0,0.432446 -0.01154,0.86114 -0.03285,1.286333 -0.349844,0.226046 -0.713033,0.446287 -1.091678,0.658356 a 0.15871531,0.15871531 0 0 0 -0.0025,0.0025 c -0.371354,0.219764 -0.744002,0.424638 -1.115216,0.623009 -0.383491,-0.197657 -0.757492,-0.404235 -1.1195748,-0.62302 a 0.15871531,0.15871531 0 0 0 -0.0074,-0.0025 c -0.386186,-0.212008 -0.751044,-0.432481 -1.1010585,-0.658357 -0.014251,-0.425344 -0.021077,-0.853753 -0.021077,-1.286334 0,-0.43968 0.00695,-0.870323 0.021076,-1.295631 0.3576325,-0.22649 0.7242425,-0.448455 1.1034555,-0.660834 a 0.15871531,0.15871531 0 0 0 0.0025,0 c 0.3630898,-0.211751 0.7289838,-0.416062 1.0991248,-0.613701 z m 0.02542,1.485328 c -0.188874,0 -0.3708,0.04999 -0.538711,0.143202 -0.171397,0.08681 -0.3084208,0.221062 -0.4029468,0.391169 -0.09393,0.16904 -0.143202,0.354836 -0.143202,0.550488 0,0.188829 0.04989,0.373214 0.143202,0.541191 a 0.15871531,0.15871531 0 0 0 0.0025,0.0025 c 0.09539,0.162205 0.2318638,0.293164 0.4004678,0.38683 0.167961,0.09331 0.349881,0.142581 0.538712,0.142581 0.182147,0 0.360733,-0.04998 0.52755,-0.142581 0.168607,-0.09366 0.305067,-0.224631 0.400468,-0.38683 a 0.15871531,0.15871531 0 0 0 0.0025,-0.0025 c 0.0933,-0.167972 0.142582,-0.352359 0.142582,-0.541191 0,-0.195699 -0.04866,-0.381459 -0.142582,-0.550488 -0.09453,-0.170196 -0.231581,-0.304361 -0.402947,-0.391169 -0.166866,-0.09271 -0.345443,-0.143202 -0.527551,-0.143202 z m -3.1839118,0.440762 c -0.00372,0.214088 -0.00744,0.42643 -0.00744,0.644097 0,0.211732 0.00372,0.42303 0.00744,0.634798 -0.3033437,-0.208533 -0.599767,-0.419111 -0.8809054,-0.634798 0.2813243,-0.220605 0.5773205,-0.434325 0.8809054,-0.644097 z m 6.3467368,0 c 0.305228,0.210184 0.604168,0.422996 0.890825,0.644097 -0.286462,0.216167 -0.585836,0.425848 -0.890825,0.634798 0.0071,-0.211604 0.01673,-0.42321 0.01673,-0.634798 0,-0.217475 -0.0095,-0.430149 -0.01673,-0.644097 z M 6.0296423,13.2781 c 0.5275631,0.418627 1.0784643,0.823966 1.6589043,1.215663 0.046328,0.690981 0.1207678,1.369074 0.2200723,2.033955 -1.160654,0.425172 -2.144836,0.675309 -2.8913055,0.705469 C 4.61878,17.248937 4.3031245,17.217547 4.0731758,17.146397 3.8432258,17.075227 3.7056835,16.970535 3.6280732,16.837059 3.5506142,16.70381 3.5280247,16.531303 3.5809642,16.295868 3.6338912,16.060432 3.7639564,15.76801 3.9770937,15.4286 a 0.15871531,0.15871531 0 0 0 0.00252,-0.002 c 0.3832817,-0.631258 1.0899612,-1.357034 2.0500742,-2.148612 z m 9.5591617,0 c 0.96081,0.791844 1.672955,1.518278 2.064332,2.150501 a 0.15871531,0.15871531 0 0 0 0,0.0025 c 0.216985,0.339287 0.350189,0.630109 0.402948,0.864788 0.05275,0.234678 0.02916,0.40539 -0.05146,0.53871 a 0.15871531,0.15871531 0 0 0 0,0.0025 c -0.07762,0.13351 -0.217644,0.238174 -0.447582,0.309341 -0.229941,0.07116 -0.545612,0.102586 -0.944138,0.08679 -0.746585,-0.0301 -1.734583,-0.280105 -2.903084,-0.70547 0.09934,-0.664867 0.1745,-1.342932 0.220691,-2.033956 0.580438,-0.391713 1.13072,-0.797047 1.658285,-1.215663 z m -6.9139598,1.83434 c 0.179297,0.11221 0.356256,0.226872 0.546149,0.335376 0.183963,0.108171 0.37225,0.208311 0.559787,0.30934 -0.334633,0.153247 -0.66654,0.299067 -0.993731,0.437665 -0.04593,-0.354709 -0.08083,-0.716546 -0.112201,-1.082381 z m 4.2687668,0.0025 c -0.03133,0.365031 -0.06636,0.72595 -0.11221,1.079899 -0.326544,-0.138319 -0.657293,-0.284745 -0.991251,-0.437662 0.188098,-0.101294 0.374478,-0.200883 0.569706,-0.30934 a 0.15871531,0.15871531 0 0 0 0.002,-0.0025 c 0.182513,-0.107351 0.356337,-0.219479 0.531892,-0.330417 z m -2.148023,1.171648 c 0.628416,0.308237 1.259678,0.581275 1.895095,0.829452 -0.207335,1.202298 -0.481959,2.171875 -0.829453,2.844192 a 0.15871531,0.15871531 0 0 0 0,0.0025 c -0.181416,0.358889 -0.367022,0.621577 -0.543669,0.787298 -0.176647,0.165722 -0.336712,0.23433 -0.496555,0.23433 -0.164814,0 -0.330249,-0.07084 -0.510814,-0.23681 -0.180567,-0.165946 -0.3676438,-0.428443 -0.5529688,-0.78727 -0.347492,-0.672316 -0.622117,-1.641893 -0.829453,-2.84419 0.625889,-0.247397 1.2488838,-0.522441 1.8678178,-0.829454 z"
         id="text5407" /><path
         inkscape:connector-curvature="0"
         id="path5369"
         d="m 0.72760492,18.520836 v 4.167188 c 0,1.539081 1.23904398,2.778124 2.77812498,2.778124 H 22.952604 c 1.539081,0 2.778125,-1.239043 2.778125,-2.778124 v -4.167188 z"
         style="opacity:1;fill:#222222;fill-opacity:1;fill-rule:nonzero;stroke:none;stroke-width:0.25;stroke-linecap:butt;stroke-linejoin:round;stroke-miterlimit:4;stroke-dasharray:none;stroke-dashoffset:0;stroke-opacity:0.909449;paint-order:normal" /><g
         id="text5373"
         style="font-style:normal;font-variant:normal;font-weight:500;font-stretch:normal;font-size:4.23333px;line-height:4.23333px;font-family:Montserrat;-inkscape-font-specification:'Montserrat Medium';text-align:center;letter-spacing:-0.264583px;text-anchor:middle;display:inline;opacity:1;fill:#eeeeee;fill-opacity:1;fill-rule:nonzero;stroke:none;stroke-width:0.25;stroke-linecap:butt;stroke-linejoin:round;stroke-miterlimit:4;stroke-dasharray:none;stroke-dashoffset:0;stroke-opacity:0.909449;paint-order:normal"
         aria-label="PROGRESS"><path
           id="path4608"
           style="font-style:normal;font-variant:normal;font-weight:500;font-stretch:normal;font-size:4.23333px;font-family:Montserrat;-inkscape-font-specification:'Montserrat Medium';letter-spacing:-0.264583px;fill:#eeeeee;fill-opacity:1;stroke-width:0.25"
           d="m 3.760524,20.325294 q 0.5587999,0 0.8635999,0.2667 0.3090333,0.2667 0.3090333,0.753534 0,0.508 -0.3090333,0.791633 -0.3048,0.2794 -0.8635999,0.2794 h -0.6477 v 0.872067 H 2.5455574 v -2.963334 z m -0.029633,1.591734 q 0.3217333,0 0.4910667,-0.1397 0.1735666,-0.1397 0.1735666,-0.414867 0,-0.270933 -0.1735666,-0.4064 Q 4.0526239,20.820594 3.7308906,20.820594 H 3.112824 v 1.096434 z"
           inkscape:connector-curvature="0" /><path
           id="path4610"
           style="font-style:normal;font-variant:normal;font-weight:500;font-stretch:normal;font-size:4.23333px;font-family:Montserrat;-inkscape-font-specification:'Montserrat Medium';letter-spacing:-0.264583px;fill:#eeeeee;fill-opacity:1;stroke-width:0.25"
           d="m 6.9959811,23.288628 -0.5122333,-0.8763 q -0.033867,0.0042 -0.1058333,0.0042 H 5.7090478 v 0.872067 H 5.1417812 v -2.963334 h 1.2361333 q 0.5757333,0 0.8889999,0.2667 0.3132667,0.2667 0.3132667,0.753534 0,0.347133 -0.1524,0.592666 -0.1481667,0.245534 -0.4360333,0.3683 l 0.6519333,0.982134 z m -1.2869333,-1.3716 h 0.6688667 q 0.3217333,0 0.4910666,-0.1397 0.1693333,-0.1397 0.1693333,-0.414867 0,-0.270933 -0.1693333,-0.4064 Q 6.6996478,20.820594 6.3779145,20.820594 H 5.7090478 Z"
           inkscape:connector-curvature="0" /><path
           id="path4612"
           style="font-style:normal;font-variant:normal;font-weight:500;font-stretch:normal;font-size:4.23333px;font-family:Montserrat;-inkscape-font-specification:'Montserrat Medium';letter-spacing:-0.264583px;fill:#eeeeee;fill-opacity:1;stroke-width:0.25"
           d="m 9.2826426,20.287194 q 0.4402667,0 0.8001004,0.198967 0.364066,0.198967 0.5715,0.5461 0.207433,0.347133 0.207433,0.770467 0,0.423333 -0.207433,0.7747 -0.207434,0.347133 -0.5715,0.550333 -0.3598337,0.2032 -0.8001004,0.2032 -0.4402666,0 -0.8043333,-0.2032 -0.3598333,-0.2032 -0.5672666,-0.550333 -0.2074333,-0.351367 -0.2074333,-0.7747 0,-0.423334 0.2074333,-0.770467 0.2074333,-0.347133 0.5672666,-0.5461 0.3640667,-0.198967 0.8043333,-0.198967 z m 0.00847,0.508 q -0.2709333,0 -0.5037666,0.135467 -0.2328334,0.131233 -0.3683,0.364067 -0.1354667,0.2286 -0.1354667,0.508 0,0.2794 0.1354667,0.512233 0.1397,0.232833 0.3683,0.3683 0.2328333,0.135467 0.5037666,0.135467 0.2667,0 0.4953,-0.135467 0.2285994,-0.135467 0.3598334,-0.3683 0.135466,-0.232833 0.135466,-0.512233 0,-0.2794 -0.135466,-0.508 -0.131234,-0.232834 -0.3598334,-0.364067 -0.2286,-0.135467 -0.4953,-0.135467 z"
           inkscape:connector-curvature="0" /><path
           id="path4614"
           style="font-style:normal;font-variant:normal;font-weight:500;font-stretch:normal;font-size:4.23333px;font-family:Montserrat;-inkscape-font-specification:'Montserrat Medium';letter-spacing:-0.264583px;fill:#eeeeee;fill-opacity:1;stroke-width:0.25"
           d="m 13.00652,21.815428 h 0.4953 v 1.126066 q -0.232833,0.173567 -0.550333,0.283634 -0.3175,0.105833 -0.6223,0.105833 -0.436034,0 -0.795867,-0.2032 -0.3556,-0.2032 -0.563033,-0.550333 -0.207433,-0.351367 -0.207433,-0.7747 0,-0.423334 0.211666,-0.766234 0.211667,-0.347133 0.575734,-0.5461 0.368299,-0.2032 0.812799,-0.2032 0.3175,0 0.626534,0.1143 0.309033,0.1143 0.5334,0.313267 l -0.321734,0.4191 q -0.169333,-0.160867 -0.3937,-0.249767 -0.220133,-0.0889 -0.4445,-0.0889 -0.2794,0 -0.516466,0.135467 -0.232834,0.131233 -0.3683,0.364067 -0.135467,0.232833 -0.135467,0.508 0,0.2794 0.135467,0.512233 0.1397,0.232833 0.372533,0.3683 0.232833,0.135467 0.516467,0.135467 0.1524,0 0.3175,-0.04657 0.169333,-0.0508 0.321733,-0.1397 z"
           inkscape:connector-curvature="0" /><path
           id="path4616"
           style="font-style:normal;font-variant:normal;font-weight:500;font-stretch:normal;font-size:4.23333px;font-family:Montserrat;-inkscape-font-specification:'Montserrat Medium';letter-spacing:-0.264583px;fill:#eeeeee;fill-opacity:1;stroke-width:0.25"
           d="m 15.743768,23.288628 -0.512234,-0.8763 q -0.03387,0.0042 -0.105833,0.0042 h -0.668867 v 0.872067 h -0.567266 v -2.963334 h 1.236133 q 0.575733,0 0.889,0.2667 0.313267,0.2667 0.313267,0.753534 0,0.347133 -0.1524,0.592666 -0.148167,0.245534 -0.436034,0.3683 l 0.651934,0.982134 z m -1.286934,-1.3716 h 0.668867 q 0.321733,0 0.491067,-0.1397 0.169333,-0.1397 0.169333,-0.414867 0,-0.270933 -0.169333,-0.4064 -0.169334,-0.135467 -0.491067,-0.135467 h -0.668867 z"
           inkscape:connector-curvature="0" /><path
           id="path4618"
           style="font-style:normal;font-variant:normal;font-weight:500;font-stretch:normal;font-size:4.23333px;font-family:Montserrat;-inkscape-font-specification:'Montserrat Medium';letter-spacing:-0.264583px;fill:#eeeeee;fill-opacity:1;stroke-width:0.25"
           d="m 16.684228,20.325294 h 2.1717 v 0.4953 h -1.604433 v 0.732367 h 1.439333 v 0.4953 h -1.439333 v 0.745067 h 1.655233 v 0.4953 h -2.2225 z"
           inkscape:connector-curvature="0" /><path
           id="path4620"
           style="font-style:normal;font-variant:normal;font-weight:500;font-stretch:normal;font-size:4.23333px;font-family:Montserrat;-inkscape-font-specification:'Montserrat Medium';letter-spacing:-0.264583px;fill:#eeeeee;fill-opacity:1;stroke-width:0.25"
           d="m 21.076973,21.087294 q -0.2286,-0.1397 -0.4699,-0.2159 -0.237067,-0.0762 -0.4191,-0.0762 -0.2032,0 -0.321733,0.0762 -0.118534,0.0762 -0.118534,0.211667 0,0.122767 0.08043,0.207433 0.08467,0.08043 0.207433,0.135467 0.127,0.0508 0.3429,0.1143 0.300566,0.0889 0.491066,0.1778 0.194734,0.0889 0.3302,0.262467 0.135467,0.173566 0.135467,0.4572 0,0.270933 -0.148167,0.474133 -0.143933,0.198967 -0.402166,0.3048 -0.254,0.105833 -0.5842,0.105833 -0.347133,0 -0.677333,-0.127 -0.3302,-0.131233 -0.575734,-0.347133 l 0.237067,-0.4826 q 0.224367,0.207433 0.503767,0.325967 0.2794,0.118533 0.520699,0.118533 0.237067,0 0.372534,-0.0889 0.135466,-0.09313 0.135466,-0.249767 0,-0.127 -0.08467,-0.207433 -0.08043,-0.08467 -0.207434,-0.135467 -0.127,-0.0508 -0.347133,-0.1143 -0.300566,-0.0889 -0.491066,-0.173566 -0.1905,-0.08467 -0.325967,-0.254 -0.135467,-0.173567 -0.135467,-0.452967 0,-0.258233 0.135467,-0.448733 0.1397,-0.194734 0.389467,-0.300567 0.254,-0.105833 0.584199,-0.105833 0.287867,0 0.567267,0.08467 0.283633,0.08467 0.503767,0.2286 z"
           inkscape:connector-curvature="0" /><path
           id="path4622"
           style="font-style:normal;font-variant:normal;font-weight:500;font-stretch:normal;font-size:4.23333px;font-family:Montserrat;-inkscape-font-specification:'Montserrat Medium';letter-spacing:-0.264583px;fill:#eeeeee;fill-opacity:1;stroke-width:0.25"
           d="m 23.47476,21.087294 q -0.2286,-0.1397 -0.4699,-0.2159 -0.237067,-0.0762 -0.4191,-0.0762 -0.2032,0 -0.321733,0.0762 -0.118534,0.0762 -0.118534,0.211667 0,0.122767 0.08043,0.207433 0.08467,0.08043 0.207433,0.135467 0.127,0.0508 0.3429,0.1143 0.300567,0.0889 0.491067,0.1778 0.194733,0.0889 0.3302,0.262467 0.135466,0.173566 0.135466,0.4572 0,0.270933 -0.148166,0.474133 -0.143934,0.198967 -0.402167,0.3048 -0.254,0.105833 -0.5842,0.105833 -0.347133,0 -0.677333,-0.127 -0.3302,-0.131233 -0.575734,-0.347133 l 0.237067,-0.4826 q 0.224367,0.207433 0.503767,0.325967 0.2794,0.118533 0.5207,0.118533 0.237066,0 0.372533,-0.0889 0.135467,-0.09313 0.135467,-0.249767 0,-0.127 -0.08467,-0.207433 -0.08043,-0.08467 -0.207433,-0.135467 -0.127,-0.0508 -0.347134,-0.1143 -0.300566,-0.0889 -0.491066,-0.173566 -0.1905,-0.08467 -0.325967,-0.254 -0.135467,-0.173567 -0.135467,-0.452967 0,-0.258233 0.135467,-0.448733 0.1397,-0.194734 0.389467,-0.300567 0.254,-0.105833 0.5842,-0.105833 0.287866,0 0.567266,0.08467 0.283634,0.08467 0.503767,0.2286 z"
           inkscape:connector-curvature="0" /></g></g><path
       style="fill:#212121;stroke-width:0.152448;fill-opacity:1"
       d="m -76.815343,134.73341 c -0.06655,-0.017 -0.202687,-0.0783 -0.302517,-0.13657 -0.09983,-0.0583 -0.211881,-0.10605 -0.249001,-0.10618 -0.03713,-3.1e-4 -0.123335,-0.0474 -0.19159,-0.10486 l -0.124104,-0.10433 v -1.10764 c 0,-0.90247 0.01115,-1.12918 0.06011,-1.22388 0.03305,-0.0639 0.08847,-0.26722 0.123096,-0.45177 0.03463,-0.18452 0.09753,-0.45351 0.139733,-0.59769 0.09105,-0.31105 0.161081,-0.73011 0.161081,-0.96392 0,-0.0925 0.02959,-0.23556 0.06574,-0.31802 0.105018,-0.23955 0.137496,-0.46852 0.170053,-1.1987 0.02483,-0.55693 0.04496,-0.7122 0.107168,-0.82687 0.08933,-0.16469 0.129335,-0.42627 0.175794,-1.14954 0.0199,-0.30953 0.06098,-0.59668 0.100319,-0.70087 0.03665,-0.097 0.06663,-0.25135 0.06667,-0.34284 4e-5,-0.20608 0.09825,-0.68697 0.1805,-0.88383 0.03513,-0.084 0.06147,-0.26767 0.06147,-0.42856 0,-0.24223 -0.02033,-0.32249 -0.145968,-0.57608 -0.08028,-0.16214 -0.217675,-0.38108 -0.305321,-0.48673 -0.08764,-0.10552 -0.194569,-0.29623 -0.237608,-0.42352 -0.04303,-0.12729 -0.150543,-0.32219 -0.238888,-0.43312 -0.17323,-0.21749 -0.232363,-0.30556 -0.470349,-0.70058 -0.08512,-0.14131 -0.22802,-0.34095 -0.317545,-0.44368 -0.233443,-0.2679 -0.481952,-0.60792 -0.563952,-0.77165 -0.03889,-0.0777 -0.139275,-0.241 -0.223071,-0.36303 -0.08381,-0.12199 -0.201358,-0.3463 -0.261235,-0.49844 -0.08954,-0.22752 -0.100916,-0.29404 -0.06403,-0.375 0.07748,-0.17005 0.05595,-0.29405 -0.05863,-0.33761 -0.05689,-0.0216 -0.149933,-0.0393 -0.206716,-0.0393 -0.129334,0 -0.56688,-0.18874 -0.688831,-0.29712 -0.05031,-0.0447 -0.138614,-0.18222 -0.196215,-0.30553 -0.05761,-0.12331 -0.144511,-0.27868 -0.193105,-0.34523 -0.04859,-0.0666 -0.135548,-0.20269 -0.193216,-0.30252 -0.05767,-0.0998 -0.151441,-0.22502 -0.208365,-0.27819 -0.05693,-0.0532 -0.124702,-0.16214 -0.150608,-0.24202 -0.02591,-0.08 -0.07964,-0.19175 -0.119406,-0.24849 -0.03977,-0.0568 -0.103784,-0.18378 -0.142258,-0.28235 -0.03848,-0.0986 -0.102416,-0.22619 -0.142104,-0.28365 -0.03969,-0.0575 -0.110301,-0.20645 -0.156947,-0.3311 -0.07777,-0.20784 -0.103744,-0.23602 -0.313151,-0.33969 -0.278861,-0.13808 -0.393588,-0.2977 -0.431407,-0.6004 -0.03415,-0.27339 -0.134835,-0.39242 -0.389844,-0.46098 -0.200143,-0.0538 -0.412656,-0.25417 -0.586502,-0.55299 -0.06139,-0.10552 -0.166571,-0.26649 -0.233766,-0.35773 -0.06718,-0.0912 -0.153287,-0.21827 -0.191323,-0.28233 -0.03804,-0.0641 -0.187784,-0.28549 -0.332765,-0.49209 -0.324641,-0.46263 -0.341258,-0.58807 -0.121702,-0.91884 0.07805,-0.1176 0.171418,-0.24331 0.207501,-0.27938 0.03609,-0.0361 0.137207,-0.23217 0.224712,-0.43577 0.133277,-0.31006 0.207622,-0.42013 0.457911,-0.678 l 0.298799,-0.30783 -0.02491,-0.23829 c -0.02231,-0.21353 -0.01208,-0.26329 0.09907,-0.4787 0.06818,-0.13221 0.174739,-0.29728 0.236789,-0.36678 0.223862,-0.25079 0.301109,-0.36134 0.404917,-0.5795 0.06156,-0.12928 0.202306,-0.3145 0.337622,-0.44411 0.135276,-0.12968 0.266066,-0.30157 0.313594,-0.41245 0.04485,-0.10473 0.189227,-0.30598 0.320852,-0.44746 0.185498,-0.19941 0.245831,-0.2958 0.268279,-0.42867 0.02093,-0.12384 0.07223,-0.2134 0.184964,-0.3228 0.09289,-0.0901 0.255428,-0.34549 0.401729,-0.63112 0.254462,-0.49676 0.45889,-0.79053 0.659384,-0.94756 0.06402,-0.0502 0.154779,-0.17623 0.201676,-0.28021 0.04689,-0.10406 0.139732,-0.25922 0.206286,-0.34496 0.215055,-0.27713 0.647305,-0.67909 0.840961,-0.78201 l 0.188653,-0.10034 0.251562,0.0876 c 0.13836,0.0483 0.360468,0.10858 0.493575,0.13419 0.261465,0.0503 0.769035,0.27448 0.974381,0.43044 0.07004,0.0532 0.197093,0.10645 0.282346,0.11827 0.152135,0.0212 0.879269,0.35009 0.920078,0.41611 0.01141,0.0185 0.111415,0.081 0.222212,0.13895 0.204589,0.10698 0.599511,0.18493 0.928642,0.18334 l 0.181509,-8.9e-4 -0.156015,-0.13775 c -0.121025,-0.10698 -0.225074,-0.15248 -0.463854,-0.20345 -0.169316,-0.0361 -0.335062,-0.073 -0.368338,-0.082 -0.03328,-0.008 -0.214745,-0.10725 -0.40326,-0.21839 -0.188516,-0.11109 -0.388176,-0.20237 -0.443689,-0.20284 -0.129653,-10e-4 -0.391781,-0.12052 -0.63523,-0.28933 -0.105456,-0.073 -0.299352,-0.18748 -0.430879,-0.25413 -0.263086,-0.13335 -0.332246,-0.2477 -0.28904,-0.47801 0.02977,-0.15865 0.378718,-0.63217 0.558892,-0.75841 0.07186,-0.0503 0.157743,-0.12862 0.190879,-0.17386 0.07979,-0.10897 0.221805,-0.41723 0.256688,-0.55709 0.07379,-0.29583 0.630388,-1.20018 1.077063,-1.749968 0.123348,-0.15182 0.282932,-0.37941 0.354625,-0.50575 0.131723,-0.23212 0.418336,-0.52071 0.708884,-0.71377 0.127847,-0.0849 0.205614,-0.10499 0.403353,-0.10419 0.219204,9.1e-4 0.264935,0.0165 0.434993,0.14772 0.104527,0.0807 0.249726,0.15933 0.322682,0.17478 0.07296,0.0154 0.359532,0.16929 0.636836,0.34184 0.277306,0.17255 0.58587,0.35402 0.685701,0.40328 0.09983,0.0492 0.281463,0.19198 0.403631,0.31716 0.122167,0.12517 0.338565,0.327438 0.480884,0.449458 0.4033,0.34575 0.486884,0.43238 0.486884,0.50461 0,0.0369 -0.06354,0.18074 -0.141172,0.31958 -0.07765,0.13885 -0.14119,0.27793 -0.141207,0.30907 -6.1e-5,0.10738 -0.240726,0.56504 -0.396672,0.75427 -0.08601,0.10433 -0.2585,0.38245 -0.383338,0.61798 -0.124834,0.23553 -0.305219,0.535 -0.400845,0.66552 -0.09563,0.13048 -0.239726,0.34624 -0.320218,0.4794 -0.0805,0.13317 -0.195544,0.28745 -0.255672,0.34285 -0.06013,0.0554 -0.148255,0.18243 -0.195837,0.28226 -0.136276,0.2859 -0.220065,0.39158 -0.365038,0.46036 -0.207212,0.0982 -0.566095,0.082 -0.82242,-0.0373 -0.416943,-0.19409 -0.471236,-0.10526 -0.08652,0.14182 0.319739,0.20517 1.431465,0.65939 1.792657,0.73243 0.221697,0.0449 0.421033,0.1381 0.725985,0.33958 0.112822,0.0746 0.284752,0.1469 0.385261,0.16198 0.248898,0.0374 1.027672,0.57852 1.117484,0.77641 0.09711,0.21396 0.03712,0.69386 -0.124304,0.99446 -0.03573,0.0666 -0.06534,0.20268 -0.06582,0.30251 -0.0012,0.25128 -0.100452,0.64852 -0.22208,0.88854 -0.123175,0.24309 -0.350715,0.41784 -0.660542,0.50733 -0.124437,0.036 -0.276864,0.092 -0.338724,0.1245 -0.06185,0.0325 -0.161691,0.0847 -0.221844,0.11628 -0.07781,0.0405 -0.260698,0.0571 -0.633729,0.0575 -0.498804,3.2e-4 -0.535169,0.007 -0.746201,0.11627 -0.122008,0.0637 -0.264556,0.12915 -0.316759,0.1452 -0.0522,0.0153 -0.159099,0.0729 -0.237557,0.12609 -0.130343,0.0884 -0.183085,0.0968 -0.612062,0.0968 -0.534063,0 -0.581135,-0.0189 -0.744097,-0.29685 -0.06394,-0.1091 -0.185658,-0.22946 -0.316824,-0.31323 -0.282625,-0.18052 -0.496203,-0.37589 -0.641066,-0.58644 -0.0653,-0.0949 -0.198265,-0.2273 -0.295463,-0.29418 -0.0972,-0.0669 -0.21399,-0.18189 -0.259544,-0.25558 -0.08347,-0.13505 -0.472149,-0.43182 -0.56559,-0.43182 -0.06937,0 -0.01695,0.40689 0.08228,0.63863 0.05256,0.12264 0.07481,0.27283 0.07474,0.50418 -9.2e-5,0.31335 -0.0074,0.34047 -0.151254,0.55603 -0.08314,0.12477 -0.200741,0.30615 -0.261338,0.40336 -0.117097,0.18784 -0.346979,0.51921 -0.466736,0.67278 -0.08642,0.11083 -0.333486,0.20562 -0.542392,0.20806 -0.120667,0.001 -0.151254,0.0171 -0.151254,0.0778 0,0.0418 0.04307,0.10419 0.0957,0.13876 0.138327,0.0906 0.548139,0.18858 0.789018,0.18858 0.212199,0 0.430645,0.0848 0.668187,0.25956 0.06655,0.049 0.195812,0.1184 0.287239,0.15436 0.09143,0.036 0.252206,0.11985 0.357284,0.18648 0.105084,0.0666 0.248083,0.13352 0.31779,0.1486 0.0697,0.0153 0.21551,0.0722 0.324009,0.12676 0.108509,0.0547 0.317233,0.11786 0.463854,0.14063 0.146629,0.0227 0.311964,0.065 0.367425,0.094 0.138258,0.0723 0.411283,0.36438 0.545693,0.58363 0.0612,0.0998 0.171132,0.24843 0.244286,0.33025 0.07316,0.0819 0.185387,0.25426 0.249405,0.3832 0.153643,0.30944 0.30149,0.53915 0.408755,0.63512 0.04797,0.0429 0.12652,0.14266 0.17458,0.22184 0.04805,0.0791 0.137614,0.20735 0.199006,0.285 0.0614,0.0776 0.135395,0.20981 0.164435,0.29372 0.03486,0.10061 0.119552,0.20353 0.249116,0.30253 0.130397,0.0997 0.21809,0.20641 0.261166,0.31808 0.03671,0.0952 0.194343,0.30512 0.363421,0.48402 0.201866,0.21358 0.33608,0.39946 0.414378,0.57385 0.06369,0.14181 0.171468,0.31431 0.239497,0.38319 0.06803,0.0687 0.168045,0.21205 0.222262,0.31817 0.155507,0.30436 0.378571,0.63742 0.559357,0.83519 0.09148,0.10008 0.228103,0.28177 0.303614,0.40377 0.07551,0.12198 0.232612,0.32856 0.349108,0.45897 0.134022,0.15012 0.236592,0.31299 0.279292,0.44369 0.09287,0.28428 0.148237,0.38365 0.313161,0.56209 0.07821,0.0845 0.163589,0.21867 0.189742,0.29791 0.02616,0.0792 0.0907,0.20766 0.143444,0.28539 0.125432,0.18484 0.120959,0.28503 -0.02152,0.48173 -0.138461,0.19113 -0.263268,0.28439 -0.579796,0.43321 -0.128352,0.0603 -0.261655,0.15283 -0.296237,0.20567 -0.104952,0.16011 -1.068281,0.73917 -1.304255,0.78394 -0.226354,0.0429 -0.364419,0.10406 -0.364419,0.16147 0,0.094 0.364855,0.14131 1.092753,0.14131 0.541126,0 0.766895,0.0135 0.810929,0.0504 0.0436,0.0361 0.0673,0.16283 0.08298,0.44369 0.01208,0.21626 0.05007,0.4658 0.08442,0.55454 0.07509,0.19404 0.187,0.79151 0.189462,1.01152 9.75e-4,0.0871 0.03106,0.2308 0.06684,0.31953 0.04092,0.10155 0.07624,0.36351 0.09517,0.70589 0.0166,0.29948 0.05098,0.82585 0.07649,1.16972 0.02552,0.34384 0.04606,0.74076 0.04563,0.882 -4.88e-4,0.16774 0.02321,0.30059 0.06844,0.38317 0.05715,0.10433 0.074,0.29117 0.0968,1.07427 0.02688,0.92271 0.06702,1.37861 0.126586,1.43818 0.0161,0.0153 0.06057,-0.001 0.09886,-0.0404 0.05631,-0.0563 0.07207,-0.15994 0.08245,-0.54211 0.01155,-0.42771 0.0036,-0.4937 -0.08464,-0.69446 l -0.09746,-0.22185 0.01895,-2.82345 c 0.0196,-2.91868 0.02283,-2.9737 0.1803,-3.0718 0.02789,-0.0174 0.164758,-0.0686 0.304143,-0.11402 0.250693,-0.0815 0.832417,-0.46701 0.876139,-0.58061 0.03149,-0.0819 -0.04841,-0.15809 -0.280298,-0.26784 -0.208321,-0.0986 -0.681097,-0.53563 -0.769783,-0.71166 -0.02615,-0.0519 -0.071,-0.23957 -0.09967,-0.41703 -0.03636,-0.22509 -0.112172,-0.4502 -0.250653,-0.74431 -0.109185,-0.23188 -0.212703,-0.49751 -0.230032,-0.59025 -0.01734,-0.0926 -0.07148,-0.22479 -0.120348,-0.29342 -0.04887,-0.0686 -0.106929,-0.23704 -0.129029,-0.37429 -0.0221,-0.13724 -0.07359,-0.29646 -0.114402,-0.35385 -0.04082,-0.0575 -0.101912,-0.19508 -0.135768,-0.30601 -0.03385,-0.11097 -0.153558,-0.38673 -0.266017,-0.6129 -0.112451,-0.22617 -0.223627,-0.49672 -0.247047,-0.60122 -0.02341,-0.10459 -0.0924,-0.25523 -0.153287,-0.33496 -0.0609,-0.0798 -0.163198,-0.22318 -0.227368,-0.31876 -0.06416,-0.0956 -0.265392,-0.31454 -0.447174,-0.48662 -0.181781,-0.17205 -0.377564,-0.38429 -0.435071,-0.4716 -0.143172,-0.21736 -0.190503,-0.2694 -0.321238,-0.35307 -0.06205,-0.0397 -0.178494,-0.17558 -0.258779,-0.30197 -0.08028,-0.12636 -0.257724,-0.35681 -0.394308,-0.51209 -0.13658,-0.15538 -0.291716,-0.35495 -0.344739,-0.4437 -0.05301,-0.0888 -0.119778,-0.18532 -0.148339,-0.21464 -0.02856,-0.0293 -0.05192,-0.0694 -0.05192,-0.0893 0,-0.0198 -0.109809,-0.15333 -0.244027,-0.29684 -0.13421,-0.14351 -0.260668,-0.3189 -0.281009,-0.38981 -0.05262,-0.18345 0.02359,-0.30879 0.172958,-0.28447 0.374461,0.0609 0.666453,0.0944 1.085971,0.1245 0.325321,0.0234 0.557543,0.0603 0.636798,0.10128 0.06861,0.0354 0.301036,0.0989 0.5165,0.14096 0.215465,0.0421 0.491583,0.11322 0.613596,0.15825 0.122007,0.0449 0.255103,0.0823 0.295754,0.0831 0.04064,7.2e-4 0.197233,0.0553 0.34796,0.12172 0.150728,0.0661 0.407881,0.14046 0.571453,0.1652 0.163573,0.0246 0.388161,0.0778 0.499083,0.11813 0.110924,0.0404 0.274279,0.0856 0.363017,0.10048 0.168959,0.0284 0.463855,0.17359 0.463855,0.22833 0,0.0177 0.158827,0.14994 0.352934,0.29418 0.194114,0.14419 0.407386,0.31896 0.473939,0.38818 0.06655,0.0693 0.186788,0.15961 0.267189,0.20081 0.152864,0.0784 0.30504,0.23751 0.427076,0.44663 0.03966,0.068 0.139139,0.15791 0.221058,0.20003 0.08192,0.0421 0.218055,0.15995 0.302514,0.26183 0.08446,0.10207 0.219344,0.21928 0.299745,0.26076 0.0804,0.0416 0.189306,0.13048 0.242013,0.19755 0.05271,0.0672 0.138054,0.17685 0.18965,0.24376 0.05161,0.0669 0.118384,0.12172 0.148407,0.12172 0.03002,0 0.133142,-0.1034 0.229166,-0.22968 0.114947,-0.15131 0.243339,-0.26491 0.375828,-0.33278 0.110685,-0.0568 0.273905,-0.17771 0.362711,-0.26894 0.0888,-0.0912 0.264565,-0.23361 0.390574,-0.31643 0.126003,-0.0828 0.274743,-0.21952 0.330517,-0.30381 0.05577,-0.0842 0.178747,-0.196 0.273268,-0.24827 0.09453,-0.0522 0.219902,-0.16587 0.278621,-0.2524 0.05872,-0.0865 0.177516,-0.19298 0.263994,-0.23648 0.19418,-0.0975 0.367196,-0.25528 0.446154,-0.4065 0.0768,-0.14707 0.05783,-0.16182 -0.115186,-0.0896 -0.153523,0.0643 -0.263548,0.16825 -0.40514,0.3832 -0.07023,0.10659 -0.136818,0.15028 -0.288685,0.18891 -0.131392,0.0336 -0.252786,0.10339 -0.363017,0.20921 -0.09109,0.0875 -0.27353,0.2268 -0.405423,0.30976 -0.220337,0.1386 -0.353548,0.24737 -0.976033,0.79719 -0.247926,0.21898 -0.400309,0.24473 -0.679919,0.11494 -0.231763,-0.10764 -1.77608,-1.67815 -1.804993,-1.83563 -0.03237,-0.17643 0.03795,-0.32652 0.224986,-0.48003 0.09254,-0.0759 0.239685,-0.24488 0.326967,-0.37538 0.08727,-0.13048 0.264943,-0.34107 0.394805,-0.46795 0.129852,-0.12689 0.263435,-0.29606 0.296832,-0.37599 0.03339,-0.0799 0.1643,-0.25995 0.290894,-0.40007 0.51042,-0.56485 0.657357,-0.74968 0.729223,-0.91734 0.04136,-0.0966 0.166366,-0.26574 0.277771,-0.37608 0.537227,-0.53207 1.187794,-1.24876 1.257412,-1.38522 0.0427,-0.0838 0.183285,-0.27174 0.312424,-0.4179 0.515404,-0.58333 0.646298,-0.74466 0.750877,-0.92557 0.133582,-0.23107 0.374641,-0.43658 0.512117,-0.43658 0.166791,0 0.497989,0.25372 0.667629,0.51145 0.242697,0.36871 0.705588,0.90315 1.410719,1.62871 0.119858,0.12331 0.245746,0.2776 0.279768,0.34285 0.07858,0.15063 0.07964,0.44268 0.0024,0.66159 -0.07582,0.21491 -0.462282,0.68019 -1.119965,1.3484 -0.282912,0.28745 -0.567567,0.61685 -0.632565,0.73204 -0.07892,0.13978 -0.180459,0.24802 -0.305682,0.32574 -0.146918,0.0912 -0.217457,0.17527 -0.325904,0.38861 -0.07612,0.14977 -0.123268,0.27226 -0.104739,0.27226 0.0185,0 0.177073,-0.0998 0.352369,-0.22185 0.175294,-0.12198 0.341889,-0.22185 0.370208,-0.22185 0.02831,0 0.0878,0.0362 0.132161,0.0807 0.100452,0.10048 0.106983,0.34613 0.01475,0.55591 -0.03626,0.0826 -0.07802,0.31458 -0.09281,0.51579 -0.02039,0.27749 -0.05186,0.41383 -0.130383,0.56468 -0.05693,0.1095 -0.13236,0.29871 -0.167638,0.42072 -0.03528,0.12198 -0.1103,0.28437 -0.166724,0.36078 -0.129746,0.17571 -0.138766,0.45887 -0.02191,0.68795 0.09656,0.18929 0.09999,0.26662 0.02016,0.45763 -0.03328,0.0796 -0.06053,0.21346 -0.06055,0.29736 -6.3e-5,0.20098 -0.09533,0.69482 -0.155845,0.80791 -0.02633,0.0491 -0.06641,0.23727 -0.08905,0.41794 -0.02266,0.18067 -0.09479,0.48982 -0.160303,0.687 -0.0655,0.19718 -0.119114,0.39487 -0.119114,0.43931 0,0.0445 -0.04598,0.16875 -0.102203,0.27627 -0.0562,0.10738 -0.119659,0.30382 -0.140986,0.43629 -0.07928,0.49224 -0.188611,0.6575 -0.993685,1.50196 -0.303689,0.31854 -0.332647,0.36363 -0.372067,0.57918 -0.03701,0.20237 -0.07671,0.27215 -0.295877,0.52003 -0.139224,0.15741 -0.332116,0.36075 -0.428657,0.45181 -0.09765,0.092 -0.231318,0.28191 -0.30127,0.42785 l -0.125737,0.26233 -0.03124,1.0487 c -0.04362,1.46395 -0.111296,3.97291 -0.110434,4.09404 3.97e-4,0.0553 0.01049,0.72404 0.02242,1.48575 0.02121,1.35353 0.01966,1.39146 -0.06881,1.67392 -0.06528,0.20844 -0.09701,0.43513 -0.113804,0.81334 -0.01287,0.28841 -0.03756,0.54638 -0.055,0.5733 -0.01743,0.0269 -0.09912,0.0676 -0.181508,0.0905 -0.176394,0.049 -11.775376,0.052 -11.968034,0.004 z m 9.599793,-20.19796 c -0.04437,-0.0106 -0.227344,-0.11667 -0.406613,-0.23533 -0.259409,-0.17173 -0.378539,-0.22424 -0.583617,-0.25728 -0.187214,-0.0301 -0.33904,-0.0912 -0.555224,-0.22331 -0.163656,-0.0999 -0.363966,-0.19969 -0.445144,-0.22155 -0.08118,-0.0219 -0.274556,-0.12318 -0.42973,-0.22508 -0.155168,-0.10194 -0.400117,-0.24093 -0.544316,-0.30888 -0.30268,-0.14266 -0.398368,-0.21694 -0.448651,-0.34846 -0.04683,-0.12251 0.06942,-0.38686 0.240799,-0.54767 0.06893,-0.0648 0.146154,-0.18264 0.171633,-0.26217 0.04397,-0.13725 0.09163,-0.21223 0.417012,-0.65577 0.07604,-0.10366 0.164961,-0.23978 0.197592,-0.30249 0.03264,-0.0627 0.147272,-0.21739 0.254748,-0.34369 0.299389,-0.35178 0.46264,-0.59197 0.503873,-0.74129 0.02061,-0.0747 0.07882,-0.18628 0.129335,-0.24796 0.0505,-0.0617 0.130901,-0.17692 0.178656,-0.25603 0.04774,-0.0791 0.126335,-0.17891 0.174619,-0.22183 0.04829,-0.0429 0.130502,-0.17368 0.182684,-0.29063 0.05219,-0.11694 0.193874,-0.36048 0.314855,-0.54119 0.120999,-0.18071 0.242692,-0.4172 0.27046,-0.52556 0.03135,-0.12238 0.121649,-0.28528 0.238153,-0.42986 0.103213,-0.12809 0.337517,-0.45842 0.52067,-0.73408 0.183153,-0.27565 0.374408,-0.54654 0.425015,-0.60201 0.09778,-0.10711 0.625098,-1.10991 0.625098,-1.18867 0,-0.0826 0.223112,-0.26341 0.32489,-0.26339 0.154405,4e-5 0.526926,0.15452 0.695378,0.2884 0.08418,0.0669 0.279156,0.18003 0.433276,0.25143 0.270374,0.12517 0.586638,0.37934 1.063724,0.85465 0.112941,0.11256 0.276727,0.24765 0.363948,0.30026 0.08722,0.0526 0.245772,0.18237 0.352334,0.28837 0.106557,0.10605 0.265095,0.22914 0.352293,0.27363 0.174768,0.0891 0.273878,0.21037 0.400291,0.48959 0.07667,0.16944 0.07908,0.20014 0.02835,0.36301 -0.08146,0.26154 -0.493628,1.04628 -0.623107,1.18637 -0.06152,0.0666 -0.153965,0.2299 -0.205442,0.36301 -0.05147,0.13317 -0.176777,0.33915 -0.278446,0.4579 -0.513321,0.59947 -0.612287,0.72283 -0.684295,0.85299 -0.0978,0.17678 -0.426664,0.58736 -0.73605,0.91894 -0.130038,0.13945 -0.272019,0.32315 -0.315494,0.40835 -0.04347,0.0852 -0.152727,0.22477 -0.242773,0.31011 -0.09006,0.0853 -0.222381,0.27187 -0.294065,0.41452 -0.07623,0.15163 -0.194967,0.31128 -0.285995,0.38438 -0.08561,0.0688 -0.251816,0.2614 -0.369345,0.42811 -0.117534,0.16673 -0.309812,0.38454 -0.427296,0.48403 -0.117481,0.0994 -0.305283,0.27539 -0.41733,0.39085 -0.11204,0.11561 -0.254818,0.22893 -0.31727,0.2521 -0.119234,0.0442 -0.121158,0.0445 -0.249471,0.0135 z m -5.404927,-1.75132 c -0.04437,-0.0264 -0.08975,-0.0609 -0.10085,-0.0766 -0.07041,-0.0997 -0.88971,-0.58267 -1.104568,-0.65128 -0.15505,-0.0495 -0.349434,-0.15401 -0.486764,-0.26188 -0.190232,-0.14927 -0.226526,-0.19764 -0.216108,-0.28784 0.01035,-0.0889 0.05961,-0.13154 0.2747,-0.23684 0.144206,-0.0706 0.289919,-0.12967 0.323821,-0.13113 0.0339,-0.001 0.19726,-0.0684 0.363017,-0.1486 0.165758,-0.0802 0.401206,-0.16967 0.523222,-0.19881 0.122007,-0.0291 0.321091,-0.0815 0.442394,-0.1164 0.121304,-0.0349 0.326836,-0.0633 0.456743,-0.0633 0.15095,0 0.347946,-0.0386 0.545819,-0.10712 0.170294,-0.0589 0.400381,-0.11972 0.511302,-0.13521 0.110925,-0.0153 0.288652,-0.0531 0.394953,-0.0832 0.368485,-0.10486 0.442469,0.0852 0.213454,0.54857 -0.156287,0.31622 -0.238252,0.3905 -0.511213,0.46321 -0.09784,0.0262 -0.207639,0.0738 -0.244033,0.10645 -0.03639,0.0325 -0.186449,0.29849 -0.333455,0.59119 -0.315078,0.62735 -0.477591,0.79753 -0.785083,0.82207 -0.102682,0.008 -0.222993,-0.007 -0.267363,-0.0332 z m 2.962135,-3.80918 c -0.04239,-0.051 -0.04336,-0.10884 -0.0049,-0.29485 0.02628,-0.12729 0.04778,-0.35366 0.04778,-0.50318 0,-0.17413 0.02401,-0.31824 0.06679,-0.40092 0.105536,-0.20399 0.174228,-0.51115 0.174748,-0.78143 4.27e-4,-0.22311 -0.01208,-0.26155 -0.120309,-0.36979 -0.06643,-0.0664 -0.216184,-0.15148 -0.332766,-0.18904 -0.116592,-0.0376 -0.357176,-0.15418 -0.53465,-0.25907 -0.177475,-0.10499 -0.395286,-0.21435 -0.484025,-0.2431 -0.199705,-0.0648 -0.481103,-0.20447 -0.732292,-0.36378 -0.105071,-0.0666 -0.240762,-0.12118 -0.301528,-0.12118 -0.39407,0 -0.572257,-0.36711 -0.364726,-0.75147 0.04636,-0.0859 0.109637,-0.21961 0.140647,-0.29725 0.03099,-0.0776 0.137852,-0.23194 0.237445,-0.34285 0.09959,-0.11096 0.238541,-0.32264 0.308762,-0.47049 0.07022,-0.14792 0.210705,-0.37929 0.312188,-0.51429 0.101474,-0.13504 0.271699,-0.41516 0.378262,-0.62257 0.106557,-0.2074 0.26384,-0.48876 0.349508,-0.62522 0.409903,-0.65294 0.38951,-0.62851 0.546135,-0.65398 0.08301,-0.0135 0.212918,-0.081 0.295597,-0.15359 0.158336,-0.13902 0.194563,-0.13941 0.463584,-0.005 0.07765,0.0388 0.200637,0.0834 0.273316,0.0992 0.07268,0.0158 0.222804,0.0896 0.33361,0.1641 0.242369,0.1631 0.608361,0.35155 0.813066,0.41865 0.338928,0.1111 0.832191,0.4495 1.245809,0.85468 0.126826,0.12423 0.329354,0.28163 0.450068,0.34975 0.120706,0.0681 0.288353,0.18884 0.372534,0.26821 0.14773,0.13928 0.152288,0.15182 0.131087,0.35612 -0.01208,0.11641 -0.07817,0.38206 -0.146816,0.59021 -0.06867,0.20814 -0.124834,0.42985 -0.124834,0.4927 0,0.068 -0.04676,0.16791 -0.115332,0.24676 -0.06343,0.0729 -0.152575,0.21735 -0.198081,0.32108 -0.04551,0.10367 -0.156794,0.26892 -0.247306,0.36711 -0.09051,0.0982 -0.202112,0.26344 -0.248012,0.36721 -0.0459,0.10366 -0.180956,0.29793 -0.300125,0.43147 -0.119167,0.13352 -0.228668,0.29747 -0.243334,0.36425 -0.01475,0.0668 -0.120282,0.23139 -0.234697,0.36582 -0.114416,0.13435 -0.251614,0.31033 -0.304885,0.39088 -0.05327,0.0807 -0.10973,0.15554 -0.125472,0.16655 -0.01575,0.012 -0.05856,0.0786 -0.09517,0.15013 -0.07753,0.1513 -0.191148,0.26627 -0.388382,0.39292 -0.07765,0.0498 -0.283703,0.23001 -0.457909,0.40031 -0.433367,0.42367 -0.708898,0.55722 -0.835326,0.40489 z"
       id="path1" /></g></svg>
