<?xml version="1.0" encoding="UTF-8" standalone="no"?>
<!-- Created with Inkscape (http://www.inkscape.org/) -->

<svg
   width="200"
   height="200"
   viewBox="0 0 52.916668 52.916666"
   version="1.1"
   id="svg8"
   inkscape:version="1.3 (0e150ed6c4, 2023-07-21)"
   sodipodi:docname="world.svg"
   xml:space="preserve"
   xmlns:inkscape="http://www.inkscape.org/namespaces/inkscape"
   xmlns:sodipodi="http://sodipodi.sourceforge.net/DTD/sodipodi-0.dtd"
   xmlns="http://www.w3.org/2000/svg"
   xmlns:svg="http://www.w3.org/2000/svg"
   xmlns:rdf="http://www.w3.org/1999/02/22-rdf-syntax-ns#"
   xmlns:cc="http://creativecommons.org/ns#"
   xmlns:dc="http://purl.org/dc/elements/1.1/"><sodipodi:namedview
     id="base"
     pagecolor="#ffffff"
     bordercolor="#666666"
     borderopacity="1.0"
     inkscape:pageopacity="0.0"
     inkscape:pageshadow="2"
     inkscape:zoom="1.4142136"
     inkscape:cx="132.93608"
     inkscape:cy="107.12668"
     inkscape:document-units="px"
     inkscape:current-layer="layer1"
     showgrid="false"
     fit-margin-top="0"
     fit-margin-left="0"
     fit-margin-right="0"
     fit-margin-bottom="0"
     inkscape:window-width="1920"
     inkscape:window-height="1137"
     inkscape:window-x="-8"
     inkscape:window-y="-8"
     inkscape:window-maximized="1"
     showguides="false"
     inkscape:object-nodes="true"
     units="px"
     inkscape:snap-page="true"
     inkscape:showpageshadow="2"
     inkscape:pagecheckerboard="0"
     inkscape:deskcolor="#d1d1d1" /><defs
     id="defs2"><inkscape:path-effect
       effect="envelope"
       id="path-effect4658"
       is_visible="true"
       yy="true"
       xx="true"
       bendpath1="m -199.08406,108.42369 h 7.0057"
       bendpath2="m -192.07836,108.42369 v 6.75242"
       bendpath3="m -199.08406,115.17611 h 7.0057"
       bendpath4="m -199.08406,108.42369 v 6.75242" /><inkscape:path-effect
       effect="bend_path"
       id="path-effect4656"
       is_visible="true"
       bendpath="m -192.00142,114.60623 c 2.12577,-0.53066 4.48261,0.85111 7.0057,0"
       prop_scale="1"
       scale_y_rel="false"
       vertical="false"
       bendpath-nodetypes="cc" /><inkscape:path-effect
       effect="bounding_box"
       id="path-effect4654"
       is_visible="true"
       linkedpath=""
       visualbounds="false" /></defs><metadata
     id="metadata5"><rdf:RDF><cc:Work
         rdf:about=""><dc:format>image/svg+xml</dc:format><dc:type
           rdf:resource="http://purl.org/dc/dcmitype/StillImage" /></cc:Work></rdf:RDF></metadata><g
     inkscape:label="Layer 1"
     inkscape:groupmode="layer"
     id="layer1"
     transform="translate(98.048812,-95.14345)"><g
       style="stroke-width:0.5"
       transform="matrix(2,0,0,2,-98.048812,95.143449)"
       id="g5175"><rect
         y="-1.110223e-16"
         x="0"
         height="26.458334"
         width="26.458334"
         id="rect5163"
         style="opacity:1;fill:#212121;fill-opacity:1;fill-rule:nonzero;stroke:none;stroke-width:0.25;stroke-linecap:butt;stroke-linejoin:round;stroke-miterlimit:4;stroke-dasharray:none;stroke-dashoffset:0;stroke-opacity:0.90944878;paint-order:normal"
         rx="1.984375"
         ry="1.984375" /><rect
         style="opacity:1;fill:#1fb2ff;fill-opacity:1;fill-rule:nonzero;stroke:none;stroke-width:0.25;stroke-linecap:butt;stroke-linejoin:round;stroke-miterlimit:4;stroke-dasharray:none;stroke-dashoffset:0;stroke-opacity:0.90944878;paint-order:normal"
         id="rect5165"
         width="23.8125"
         height="23.8125"
         x="1.322917"
         y="1.322917"
         rx="1.3229166"
         ry="1.3229166"
         inkscape:label="inside_colour" /><path
         style="opacity:1;fill:#222222;fill-opacity:1;fill-rule:nonzero;stroke:none;stroke-width:0.24999997;stroke-linecap:butt;stroke-linejoin:round;stroke-miterlimit:4;stroke-dasharray:none;stroke-dashoffset:0;stroke-opacity:0.90944878;paint-order:normal"
         d="m 0.72760492,18.520836 v 4.167188 c 0,1.539081 1.23904398,2.778124 2.77812498,2.778124 H 22.952604 c 1.539081,0 2.778125,-1.239043 2.778125,-2.778124 v -4.167188 z"
         id="rect5205-3-6"
         inkscape:connector-curvature="0" /><text
         xml:space="preserve"
         style="font-style:normal;font-variant:normal;font-weight:normal;font-stretch:normal;font-size:5.0901px;font-family:'Vistol Sans';-inkscape-font-specification:'Vistol Sans, Normal';font-variant-ligatures:normal;font-variant-caps:normal;font-variant-numeric:normal;font-variant-east-asian:normal;fill:#ededed;fill-opacity:1;stroke-width:0.34705"
         x="4.2273011"
         y="23.965742"
         id="text1"><tspan
           sodipodi:role="line"
           id="tspan1"
           style="font-style:normal;font-variant:normal;font-weight:normal;font-stretch:normal;font-size:5.0901px;font-family:'Vistol Sans';-inkscape-font-specification:'Vistol Sans, Normal';font-variant-ligatures:normal;font-variant-caps:normal;font-variant-numeric:normal;font-variant-east-asian:normal;fill:#ededed;fill-opacity:1;stroke-width:0.34705"
           x="4.2273011"
           y="23.965742">WORLD</tspan></text></g><g
       style="display:none;stroke-width:0.5"
       id="g5375"
       transform="matrix(2,0,0,2,298.8262,161.81845)"><rect
         ry="1.984375"
         rx="1.984375"
         style="opacity:1;fill:#222222;fill-opacity:1;fill-rule:nonzero;stroke:none;stroke-width:0.25;stroke-linecap:butt;stroke-linejoin:round;stroke-miterlimit:4;stroke-dasharray:none;stroke-dashoffset:0;stroke-opacity:0.909449;paint-order:normal"
         id="rect5363"
         width="26.458334"
         height="26.458334"
         x="0"
         y="-1.110223e-16" /><rect
         ry="1.3229166"
         rx="1.3229166"
         y="1.322917"
         x="1.322917"
         height="23.8125"
         width="23.8125"
         id="rect5365"
         style="opacity:1;fill:#9c27b0;fill-opacity:1;fill-rule:nonzero;stroke:none;stroke-width:0.25;stroke-linecap:butt;stroke-linejoin:round;stroke-miterlimit:4;stroke-dasharray:none;stroke-dashoffset:0;stroke-opacity:0.909449;paint-order:normal" /><path
         inkscape:connector-curvature="0"
         style="font-style:normal;font-variant:normal;font-weight:bold;font-stretch:normal;font-size:4.23333px;line-height:4.23333px;font-family:Montserrat;-inkscape-font-specification:'Montserrat Bold';text-align:center;text-anchor:middle;opacity:1;fill:#222222;fill-opacity:1;fill-rule:nonzero;stroke:none;stroke-width:0.25;stroke-linecap:butt;stroke-linejoin:round;stroke-miterlimit:4;stroke-dasharray:none;stroke-dashoffset:0;stroke-opacity:0.909449;paint-order:normal"
         d="m 10.804879,3.4467321 a 0.15871531,0.15871531 0 0 0 -0.136382,0.1146841 0.15871531,0.15871531 0 0 0 0,0.00252 C 10.140525,3.6384432 9.6416792,3.965285 9.1881282,4.6909495 8.7115532,5.4663873 8.3524323,6.579977 8.0772328,7.9666052 6.7809381,7.5183239 5.6533861,7.2662043 4.7408247,7.2822132 3.7816738,7.2991518 3.1147858,7.5444251 2.8147338,8.0695121 a 0.15871531,0.15871531 0 0 0 0,0.00253 C 2.7114104,8.2598824 2.6603742,8.4734102 2.6603742,8.7068424 c 0,0.4210159 0.1552856,0.8916088 0.4475822,1.4177576 0.4325522,0.800072 1.2077345,1.656709 2.2422503,2.565227 -1.0505355,0.923913 -1.835515,1.786695 -2.2682869,2.580106 a 0.15871531,0.15871531 0 0 0 0,0.002 c -0.2751035,0.525219 -0.4215456,0.985636 -0.4215456,1.389797 0,0.23355 0.051235,0.447071 0.1543596,0.634798 a 0.15871531,0.15871531 0 0 0 0,0.0025 c 0.291392,0.51696 0.943761,0.765711 1.8864159,0.799078 a 0.15871531,0.15871531 0 0 0 0.00252,0 c 0.9137959,0.02385 2.0535277,-0.233556 3.3717428,-0.696171 0.2741331,1.348491 0.6233467,2.453038 1.0867197,3.23598 a 0.15871531,0.15871531 0 0 0 0,0.002 c 0.500317,0.825527 1.0505898,1.281995 1.6589068,1.281995 0.601456,0 1.143394,-0.456502 1.635347,-1.281995 a 0.15871531,0.15871531 0 0 0 0,-0.002 c 0.463775,-0.783622 0.815602,-1.888301 1.089818,-3.238461 1.329834,0.457616 2.472598,0.71099 3.381042,0.686873 0.941434,-0.02479 1.593573,-0.269105 1.885797,-0.78482 v -0.0025 c 0.112868,-0.188987 0.168617,-0.409658 0.168617,-0.651537 0,-0.404148 -0.146131,-0.860011 -0.421545,-1.377461 a 0.15871531,0.15871531 0 0 0 0,-0.0025 c -0.442823,-0.797089 -1.23398,-1.657456 -2.293703,-2.579495 1.035751,-0.909437 1.822657,-1.768065 2.270146,-2.575146 h -0.0025 c 0.292427,-0.5180303 0.447581,-0.9804659 0.447581,-1.3941992 0,-0.2419357 -0.05577,-0.4625695 -0.168619,-0.6515355 C 18.512152,7.5425303 17.843709,7.2989275 16.877611,7.2822708 15.967425,7.2660519 14.83776,7.5183689 13.538724,7.964183 13.2636,6.5792764 12.907093,5.4657804 12.430927,4.6910059 11.93891,3.8904337 11.406296,3.446827 10.820996,3.446827 a 0.15871531,0.15871531 0 0 0 -0.01612,0 z m 0.01612,0.9373179 c 0.150341,0 0.307715,0.067598 0.482918,0.2318503 0.175202,0.1642516 0.359966,0.4245219 0.545528,0.7798595 0.346282,0.6549206 0.623917,1.637559 0.838751,2.8683679 C 12.063219,8.5044145 11.441451,8.7755104 10.823482,9.0818019 10.1896,8.7745053 9.5580522,8.5050791 8.9302472,8.2641277 9.1450812,7.0333188 9.4227172,6.0506804 9.7689982,5.3957598 9.9543492,5.040836 10.140769,4.7800283 10.319487,4.6159003 10.498204,4.4517709 10.66064,4.38405 10.821003,4.38405 Z M 4.7637673,8.1296051 c 0.0911,-0.00115 0.1872412,6.346e-4 0.2888825,0.00565 0.7474087,0.037804 1.7184191,0.2872155 2.8559695,0.7048491 C 7.8091824,9.5057349 7.7347419,10.1847 7.6885481,10.876545 7.1087668,11.268017 6.5593987,11.671897 6.038942,12.090331 5.1011119,11.31416 4.3963857,10.596689 3.988867,9.9627665 a 0.15871531,0.15871531 0 0 0 0,-0.00253 C 3.7681673,9.6213132 3.6336709,9.3292372 3.580961,9.0911211 3.5282498,8.8530027 3.5516668,8.6760009 3.6373786,8.5331928 a 0.15871531,0.15871531 0 0 0 0.00252,-0.00253 c 0.077723,-0.1367995 0.2165721,-0.2425416 0.4500609,-0.3136849 0.1751178,-0.053358 0.4005682,-0.083788 0.673853,-0.0874 z m 12.1033117,0 c 0.27339,0.00358 0.499447,0.033915 0.676332,0.0874 0.234475,0.070887 0.376969,0.1768772 0.458741,0.313679 0.08224,0.1423488 0.106741,0.319181 0.05208,0.5579284 -0.05467,0.2387484 -0.192044,0.5324907 -0.412866,0.8716061 a 0.15871531,0.15871531 0 0 0 0,0.00253 c -0.407388,0.6412594 -1.116485,1.3628534 -2.061855,2.1393474 -0.520806,-0.418729 -1.06877,-0.824565 -1.648986,-1.216282 -0.04645,-0.698312 -0.126237,-1.3800514 -0.23247,-2.0457355 1.137528,-0.4174882 2.114328,-0.6667861 2.877667,-0.7048491 h 0.002 c 0.10164,-0.00496 0.198374,-0.00669 0.289502,-0.00565 z m -4.035678,1.0433264 c 0.04584,0.3539495 0.08088,0.7148688 0.112198,1.0798995 -0.175573,-0.108229 -0.351341,-0.216193 -0.526931,-0.327937 a 0.15871531,0.15871531 0 0 0 -0.0069,-0.00427 C 12.214625,9.8121648 12.028243,9.7125709 11.840155,9.6112854 12.174114,9.458371 12.504862,9.3113246 12.831407,9.1730008 Z m -4.0418758,0.00935 c 0.326574,0.1336185 0.657179,0.2795376 0.991253,0.4314618 -0.186048,0.1011782 -0.370227,0.2010224 -0.559789,0.3093389 a 0.15871531,0.15871531 0 0 0 -0.0049,0.00196 c -0.182855,0.1129498 -0.361907,0.2210548 -0.541185,0.3304198 0.03138,-0.364238 0.06877,-0.7236537 0.114684,-1.0730809 z m 2.0060608,0.9373175 c 0.380181,0.198616 0.760401,0.400801 1.140652,0.613721 0.371731,0.21239 0.734257,0.434199 1.091678,0.660834 0.02131,0.42509 0.03285,0.856072 0.03285,1.295632 0,0.432446 -0.01154,0.86114 -0.03285,1.286333 -0.349844,0.226046 -0.713033,0.446287 -1.091678,0.658356 a 0.15871531,0.15871531 0 0 0 -0.0025,0.0025 c -0.371354,0.219764 -0.744002,0.424638 -1.115216,0.623009 -0.383491,-0.197657 -0.757492,-0.404235 -1.1195748,-0.62302 a 0.15871531,0.15871531 0 0 0 -0.0074,-0.0025 c -0.386186,-0.212008 -0.751044,-0.432481 -1.1010585,-0.658357 -0.014251,-0.425344 -0.021077,-0.853753 -0.021077,-1.286334 0,-0.43968 0.00695,-0.870323 0.021076,-1.295631 0.3576325,-0.22649 0.7242425,-0.448455 1.1034555,-0.660834 a 0.15871531,0.15871531 0 0 0 0.0025,0 c 0.3630898,-0.211751 0.7289838,-0.416062 1.0991248,-0.613701 z m 0.02542,1.485328 c -0.188874,0 -0.3708,0.04999 -0.538711,0.143202 -0.171397,0.08681 -0.3084208,0.221062 -0.4029468,0.391169 -0.09393,0.16904 -0.143202,0.354836 -0.143202,0.550488 0,0.188829 0.04989,0.373214 0.143202,0.541191 a 0.15871531,0.15871531 0 0 0 0.0025,0.0025 c 0.09539,0.162205 0.2318638,0.293164 0.4004678,0.38683 0.167961,0.09331 0.349881,0.142581 0.538712,0.142581 0.182147,0 0.360733,-0.04998 0.52755,-0.142581 0.168607,-0.09366 0.305067,-0.224631 0.400468,-0.38683 a 0.15871531,0.15871531 0 0 0 0.0025,-0.0025 c 0.0933,-0.167972 0.142582,-0.352359 0.142582,-0.541191 0,-0.195699 -0.04866,-0.381459 -0.142582,-0.550488 -0.09453,-0.170196 -0.231581,-0.304361 -0.402947,-0.391169 -0.166866,-0.09271 -0.345443,-0.143202 -0.527551,-0.143202 z m -3.1839118,0.440762 c -0.00372,0.214088 -0.00744,0.42643 -0.00744,0.644097 0,0.211732 0.00372,0.42303 0.00744,0.634798 -0.3033437,-0.208533 -0.599767,-0.419111 -0.8809054,-0.634798 0.2813243,-0.220605 0.5773205,-0.434325 0.8809054,-0.644097 z m 6.3467368,0 c 0.305228,0.210184 0.604168,0.422996 0.890825,0.644097 -0.286462,0.216167 -0.585836,0.425848 -0.890825,0.634798 0.0071,-0.211604 0.01673,-0.42321 0.01673,-0.634798 0,-0.217475 -0.0095,-0.430149 -0.01673,-0.644097 z M 6.0296423,13.2781 c 0.5275631,0.418627 1.0784643,0.823966 1.6589043,1.215663 0.046328,0.690981 0.1207678,1.369074 0.2200723,2.033955 -1.160654,0.425172 -2.144836,0.675309 -2.8913055,0.705469 C 4.61878,17.248937 4.3031245,17.217547 4.0731758,17.146397 3.8432258,17.075227 3.7056835,16.970535 3.6280732,16.837059 3.5506142,16.70381 3.5280247,16.531303 3.5809642,16.295868 3.6338912,16.060432 3.7639564,15.76801 3.9770937,15.4286 a 0.15871531,0.15871531 0 0 0 0.00252,-0.002 c 0.3832817,-0.631258 1.0899612,-1.357034 2.0500742,-2.148612 z m 9.5591617,0 c 0.96081,0.791844 1.672955,1.518278 2.064332,2.150501 a 0.15871531,0.15871531 0 0 0 0,0.0025 c 0.216985,0.339287 0.350189,0.630109 0.402948,0.864788 0.05275,0.234678 0.02916,0.40539 -0.05146,0.53871 a 0.15871531,0.15871531 0 0 0 0,0.0025 c -0.07762,0.13351 -0.217644,0.238174 -0.447582,0.309341 -0.229941,0.07116 -0.545612,0.102586 -0.944138,0.08679 -0.746585,-0.0301 -1.734583,-0.280105 -2.903084,-0.70547 0.09934,-0.664867 0.1745,-1.342932 0.220691,-2.033956 0.580438,-0.391713 1.13072,-0.797047 1.658285,-1.215663 z m -6.9139598,1.83434 c 0.179297,0.11221 0.356256,0.226872 0.546149,0.335376 0.183963,0.108171 0.37225,0.208311 0.559787,0.30934 -0.334633,0.153247 -0.66654,0.299067 -0.993731,0.437665 -0.04593,-0.354709 -0.08083,-0.716546 -0.112201,-1.082381 z m 4.2687668,0.0025 c -0.03133,0.365031 -0.06636,0.72595 -0.11221,1.079899 -0.326544,-0.138319 -0.657293,-0.284745 -0.991251,-0.437662 0.188098,-0.101294 0.374478,-0.200883 0.569706,-0.30934 a 0.15871531,0.15871531 0 0 0 0.002,-0.0025 c 0.182513,-0.107351 0.356337,-0.219479 0.531892,-0.330417 z m -2.148023,1.171648 c 0.628416,0.308237 1.259678,0.581275 1.895095,0.829452 -0.207335,1.202298 -0.481959,2.171875 -0.829453,2.844192 a 0.15871531,0.15871531 0 0 0 0,0.0025 c -0.181416,0.358889 -0.367022,0.621577 -0.543669,0.787298 -0.176647,0.165722 -0.336712,0.23433 -0.496555,0.23433 -0.164814,0 -0.330249,-0.07084 -0.510814,-0.23681 -0.180567,-0.165946 -0.3676438,-0.428443 -0.5529688,-0.78727 -0.347492,-0.672316 -0.622117,-1.641893 -0.829453,-2.84419 0.625889,-0.247397 1.2488838,-0.522441 1.8678178,-0.829454 z"
         id="text5407" /><path
         inkscape:connector-curvature="0"
         id="path5369"
         d="m 0.72760492,18.520836 v 4.167188 c 0,1.539081 1.23904398,2.778124 2.77812498,2.778124 H 22.952604 c 1.539081,0 2.778125,-1.239043 2.778125,-2.778124 v -4.167188 z"
         style="opacity:1;fill:#222222;fill-opacity:1;fill-rule:nonzero;stroke:none;stroke-width:0.25;stroke-linecap:butt;stroke-linejoin:round;stroke-miterlimit:4;stroke-dasharray:none;stroke-dashoffset:0;stroke-opacity:0.909449;paint-order:normal" /><g
         id="text5373"
         style="font-style:normal;font-variant:normal;font-weight:500;font-stretch:normal;font-size:4.23333px;line-height:4.23333px;font-family:Montserrat;-inkscape-font-specification:'Montserrat Medium';text-align:center;letter-spacing:-0.264583px;text-anchor:middle;display:inline;opacity:1;fill:#eeeeee;fill-opacity:1;fill-rule:nonzero;stroke:none;stroke-width:0.25;stroke-linecap:butt;stroke-linejoin:round;stroke-miterlimit:4;stroke-dasharray:none;stroke-dashoffset:0;stroke-opacity:0.909449;paint-order:normal"
         aria-label="PROGRESS"><path
           id="path4608"
           style="font-style:normal;font-variant:normal;font-weight:500;font-stretch:normal;font-size:4.23333px;font-family:Montserrat;-inkscape-font-specification:'Montserrat Medium';letter-spacing:-0.264583px;fill:#eeeeee;fill-opacity:1;stroke-width:0.25"
           d="m 3.760524,20.325294 q 0.5587999,0 0.8635999,0.2667 0.3090333,0.2667 0.3090333,0.753534 0,0.508 -0.3090333,0.791633 -0.3048,0.2794 -0.8635999,0.2794 h -0.6477 v 0.872067 H 2.5455574 v -2.963334 z m -0.029633,1.591734 q 0.3217333,0 0.4910667,-0.1397 0.1735666,-0.1397 0.1735666,-0.414867 0,-0.270933 -0.1735666,-0.4064 Q 4.0526239,20.820594 3.7308906,20.820594 H 3.112824 v 1.096434 z"
           inkscape:connector-curvature="0" /><path
           id="path4610"
           style="font-style:normal;font-variant:normal;font-weight:500;font-stretch:normal;font-size:4.23333px;font-family:Montserrat;-inkscape-font-specification:'Montserrat Medium';letter-spacing:-0.264583px;fill:#eeeeee;fill-opacity:1;stroke-width:0.25"
           d="m 6.9959811,23.288628 -0.5122333,-0.8763 q -0.033867,0.0042 -0.1058333,0.0042 H 5.7090478 v 0.872067 H 5.1417812 v -2.963334 h 1.2361333 q 0.5757333,0 0.8889999,0.2667 0.3132667,0.2667 0.3132667,0.753534 0,0.347133 -0.1524,0.592666 -0.1481667,0.245534 -0.4360333,0.3683 l 0.6519333,0.982134 z m -1.2869333,-1.3716 h 0.6688667 q 0.3217333,0 0.4910666,-0.1397 0.1693333,-0.1397 0.1693333,-0.414867 0,-0.270933 -0.1693333,-0.4064 Q 6.6996478,20.820594 6.3779145,20.820594 H 5.7090478 Z"
           inkscape:connector-curvature="0" /><path
           id="path4612"
           style="font-style:normal;font-variant:normal;font-weight:500;font-stretch:normal;font-size:4.23333px;font-family:Montserrat;-inkscape-font-specification:'Montserrat Medium';letter-spacing:-0.264583px;fill:#eeeeee;fill-opacity:1;stroke-width:0.25"
           d="m 9.2826426,20.287194 q 0.4402667,0 0.8001004,0.198967 0.364066,0.198967 0.5715,0.5461 0.207433,0.347133 0.207433,0.770467 0,0.423333 -0.207433,0.7747 -0.207434,0.347133 -0.5715,0.550333 -0.3598337,0.2032 -0.8001004,0.2032 -0.4402666,0 -0.8043333,-0.2032 -0.3598333,-0.2032 -0.5672666,-0.550333 -0.2074333,-0.351367 -0.2074333,-0.7747 0,-0.423334 0.2074333,-0.770467 0.2074333,-0.347133 0.5672666,-0.5461 0.3640667,-0.198967 0.8043333,-0.198967 z m 0.00847,0.508 q -0.2709333,0 -0.5037666,0.135467 -0.2328334,0.131233 -0.3683,0.364067 -0.1354667,0.2286 -0.1354667,0.508 0,0.2794 0.1354667,0.512233 0.1397,0.232833 0.3683,0.3683 0.2328333,0.135467 0.5037666,0.135467 0.2667,0 0.4953,-0.135467 0.2285994,-0.135467 0.3598334,-0.3683 0.135466,-0.232833 0.135466,-0.512233 0,-0.2794 -0.135466,-0.508 -0.131234,-0.232834 -0.3598334,-0.364067 -0.2286,-0.135467 -0.4953,-0.135467 z"
           inkscape:connector-curvature="0" /><path
           id="path4614"
           style="font-style:normal;font-variant:normal;font-weight:500;font-stretch:normal;font-size:4.23333px;font-family:Montserrat;-inkscape-font-specification:'Montserrat Medium';letter-spacing:-0.264583px;fill:#eeeeee;fill-opacity:1;stroke-width:0.25"
           d="m 13.00652,21.815428 h 0.4953 v 1.126066 q -0.232833,0.173567 -0.550333,0.283634 -0.3175,0.105833 -0.6223,0.105833 -0.436034,0 -0.795867,-0.2032 -0.3556,-0.2032 -0.563033,-0.550333 -0.207433,-0.351367 -0.207433,-0.7747 0,-0.423334 0.211666,-0.766234 0.211667,-0.347133 0.575734,-0.5461 0.368299,-0.2032 0.812799,-0.2032 0.3175,0 0.626534,0.1143 0.309033,0.1143 0.5334,0.313267 l -0.321734,0.4191 q -0.169333,-0.160867 -0.3937,-0.249767 -0.220133,-0.0889 -0.4445,-0.0889 -0.2794,0 -0.516466,0.135467 -0.232834,0.131233 -0.3683,0.364067 -0.135467,0.232833 -0.135467,0.508 0,0.2794 0.135467,0.512233 0.1397,0.232833 0.372533,0.3683 0.232833,0.135467 0.516467,0.135467 0.1524,0 0.3175,-0.04657 0.169333,-0.0508 0.321733,-0.1397 z"
           inkscape:connector-curvature="0" /><path
           id="path4616"
           style="font-style:normal;font-variant:normal;font-weight:500;font-stretch:normal;font-size:4.23333px;font-family:Montserrat;-inkscape-font-specification:'Montserrat Medium';letter-spacing:-0.264583px;fill:#eeeeee;fill-opacity:1;stroke-width:0.25"
           d="m 15.743768,23.288628 -0.512234,-0.8763 q -0.03387,0.0042 -0.105833,0.0042 h -0.668867 v 0.872067 h -0.567266 v -2.963334 h 1.236133 q 0.575733,0 0.889,0.2667 0.313267,0.2667 0.313267,0.753534 0,0.347133 -0.1524,0.592666 -0.148167,0.245534 -0.436034,0.3683 l 0.651934,0.982134 z m -1.286934,-1.3716 h 0.668867 q 0.321733,0 0.491067,-0.1397 0.169333,-0.1397 0.169333,-0.414867 0,-0.270933 -0.169333,-0.4064 -0.169334,-0.135467 -0.491067,-0.135467 h -0.668867 z"
           inkscape:connector-curvature="0" /><path
           id="path4618"
           style="font-style:normal;font-variant:normal;font-weight:500;font-stretch:normal;font-size:4.23333px;font-family:Montserrat;-inkscape-font-specification:'Montserrat Medium';letter-spacing:-0.264583px;fill:#eeeeee;fill-opacity:1;stroke-width:0.25"
           d="m 16.684228,20.325294 h 2.1717 v 0.4953 h -1.604433 v 0.732367 h 1.439333 v 0.4953 h -1.439333 v 0.745067 h 1.655233 v 0.4953 h -2.2225 z"
           inkscape:connector-curvature="0" /><path
           id="path4620"
           style="font-style:normal;font-variant:normal;font-weight:500;font-stretch:normal;font-size:4.23333px;font-family:Montserrat;-inkscape-font-specification:'Montserrat Medium';letter-spacing:-0.264583px;fill:#eeeeee;fill-opacity:1;stroke-width:0.25"
           d="m 21.076973,21.087294 q -0.2286,-0.1397 -0.4699,-0.2159 -0.237067,-0.0762 -0.4191,-0.0762 -0.2032,0 -0.321733,0.0762 -0.118534,0.0762 -0.118534,0.211667 0,0.122767 0.08043,0.207433 0.08467,0.08043 0.207433,0.135467 0.127,0.0508 0.3429,0.1143 0.300566,0.0889 0.491066,0.1778 0.194734,0.0889 0.3302,0.262467 0.135467,0.173566 0.135467,0.4572 0,0.270933 -0.148167,0.474133 -0.143933,0.198967 -0.402166,0.3048 -0.254,0.105833 -0.5842,0.105833 -0.347133,0 -0.677333,-0.127 -0.3302,-0.131233 -0.575734,-0.347133 l 0.237067,-0.4826 q 0.224367,0.207433 0.503767,0.325967 0.2794,0.118533 0.520699,0.118533 0.237067,0 0.372534,-0.0889 0.135466,-0.09313 0.135466,-0.249767 0,-0.127 -0.08467,-0.207433 -0.08043,-0.08467 -0.207434,-0.135467 -0.127,-0.0508 -0.347133,-0.1143 -0.300566,-0.0889 -0.491066,-0.173566 -0.1905,-0.08467 -0.325967,-0.254 -0.135467,-0.173567 -0.135467,-0.452967 0,-0.258233 0.135467,-0.448733 0.1397,-0.194734 0.389467,-0.300567 0.254,-0.105833 0.584199,-0.105833 0.287867,0 0.567267,0.08467 0.283633,0.08467 0.503767,0.2286 z"
           inkscape:connector-curvature="0" /><path
           id="path4622"
           style="font-style:normal;font-variant:normal;font-weight:500;font-stretch:normal;font-size:4.23333px;font-family:Montserrat;-inkscape-font-specification:'Montserrat Medium';letter-spacing:-0.264583px;fill:#eeeeee;fill-opacity:1;stroke-width:0.25"
           d="m 23.47476,21.087294 q -0.2286,-0.1397 -0.4699,-0.2159 -0.237067,-0.0762 -0.4191,-0.0762 -0.2032,0 -0.321733,0.0762 -0.118534,0.0762 -0.118534,0.211667 0,0.122767 0.08043,0.207433 0.08467,0.08043 0.207433,0.135467 0.127,0.0508 0.3429,0.1143 0.300567,0.0889 0.491067,0.1778 0.194733,0.0889 0.3302,0.262467 0.135466,0.173566 0.135466,0.4572 0,0.270933 -0.148166,0.474133 -0.143934,0.198967 -0.402167,0.3048 -0.254,0.105833 -0.5842,0.105833 -0.347133,0 -0.677333,-0.127 -0.3302,-0.131233 -0.575734,-0.347133 l 0.237067,-0.4826 q 0.224367,0.207433 0.503767,0.325967 0.2794,0.118533 0.5207,0.118533 0.237066,0 0.372533,-0.0889 0.135467,-0.09313 0.135467,-0.249767 0,-0.127 -0.08467,-0.207433 -0.08043,-0.08467 -0.207433,-0.135467 -0.127,-0.0508 -0.347134,-0.1143 -0.300566,-0.0889 -0.491066,-0.173566 -0.1905,-0.08467 -0.325967,-0.254 -0.135467,-0.173567 -0.135467,-0.452967 0,-0.258233 0.135467,-0.448733 0.1397,-0.194734 0.389467,-0.300567 0.254,-0.105833 0.5842,-0.105833 0.287866,0 0.567266,0.08467 0.283634,0.08467 0.503767,0.2286 z"
           inkscape:connector-curvature="0" /></g></g><path
       style="fill:#212121;fill-opacity:1;stroke-width:0.0699516"
       d="m -72.220537,131.36344 c -3.848866,-0.20812 -7.466643,-1.78368 -10.233958,-4.45696 -2.050649,-1.98097 -3.50884,-4.40363 -4.283742,-7.1171 -0.322942,-1.13084 -0.522225,-2.32369 -0.592124,-3.54429 -0.01981,-0.34596 -0.01981,-1.35677 0,-1.70273 0.125927,-2.19898 0.649818,-4.21548 1.606013,-6.18168 0.702825,-1.44521 1.692813,-2.86146 2.807152,-4.01584 0.674288,-0.69851 1.265729,-1.2227 1.997886,-1.77068 2.357971,-1.76483 5.147952,-2.833773 8.106516,-3.105904 0.497577,-0.0458 0.846613,-0.0602 1.45288,-0.0602 0.936744,0 1.570782,0.0484 2.498584,0.190763 3.010491,0.461901 5.9075,1.840591 8.180548,3.893111 2.266167,2.04631 3.87292,4.61284 4.699192,7.50618 0.322941,1.13084 0.522225,2.3237 0.592124,3.54429 0.01981,0.34596 0.01981,1.35677 0,1.70273 -0.125928,2.19899 -0.649818,4.21548 -1.606013,6.18169 -0.702825,1.4452 -1.692813,2.86145 -2.807153,4.01583 -0.674287,0.69852 -1.265729,1.2227 -1.997885,1.77068 -2.520515,1.88649 -5.536303,2.97757 -8.708027,3.15048 -0.360843,0.0197 -1.345537,0.0195 -1.711993,-3.5e-4 z m 0.13881,-3.99393 c 0,-1.57595 -0.0065,-2.48301 -0.01789,-2.49004 -0.04291,-0.0265 -1.987867,0.0611 -2.897121,0.13051 -0.620883,0.0474 -1.65465,0.148 -1.66907,0.16242 -0.01452,0.0145 0.453171,0.92391 0.632673,1.23017 0.483202,0.82445 0.957137,1.45218 1.526251,2.02155 0.58472,0.58498 1.156427,0.98072 1.77738,1.23032 0.206715,0.0831 0.549798,0.19066 0.615391,0.19293 0.03069,10e-4 0.03239,-0.12883 0.03239,-2.47786 z m 1.685648,2.42471 c 0.5565,-0.15658 1.126789,-0.46364 1.673559,-0.90109 0.241551,-0.19326 0.753187,-0.70006 0.969365,-0.96022 0.373238,-0.44916 0.732851,-0.96329 1.048806,-1.49946 0.173083,-0.29371 0.664922,-1.24646 0.65077,-1.26062 -0.01479,-0.0148 -1.039949,-0.11478 -1.669507,-0.16285 -0.909254,-0.0694 -2.854208,-0.15703 -2.897121,-0.13051 -0.01138,0.007 -0.01789,0.91409 -0.01789,2.49004 0,2.04716 0.0043,2.47899 0.02455,2.47899 0.0135,0 0.111365,-0.0244 0.217469,-0.0543 z m -5.42699,-0.66946 c -0.89033,-0.99556 -1.631824,-2.16397 -2.271548,-3.57938 -0.0561,-0.12411 -0.08367,-0.16581 -0.108158,-0.16359 -0.08831,0.008 -0.726671,0.10989 -1.097083,0.17508 -0.66992,0.11791 -1.996295,0.37796 -2.013272,0.39473 -0.01651,0.0163 0.719406,0.64898 1.094473,0.94093 1.070695,0.83344 2.400578,1.58992 3.611718,2.05446 0.314722,0.12072 0.844556,0.3071 0.87641,0.3083 0.01377,4.9e-4 -0.02787,-0.0582 -0.09254,-0.13053 z m 9.120983,0.0367 c 1.532432,-0.52913 2.948177,-1.29377 4.200915,-2.26891 0.375068,-0.29195 1.11098,-0.92462 1.094474,-0.94093 -0.01698,-0.0168 -1.343352,-0.27682 -2.013273,-0.39473 -0.370411,-0.0652 -1.008773,-0.16706 -1.097083,-0.17508 -0.02449,-0.002 -0.05206,0.0395 -0.108157,0.16359 -0.639724,1.41541 -1.381218,2.58382 -2.271548,3.57938 -0.06467,0.0723 -0.1091,0.13148 -0.09874,0.13148 0.01037,0 0.142399,-0.0427 0.293407,-0.0948 z m -15.373976,-4.54157 c 0.661496,-0.15242 2.19286,-0.44711 2.949729,-0.56764 0.22158,-0.0353 0.38988,-0.0706 0.394603,-0.0829 0.0045,-0.0118 -0.05517,-0.21542 -0.132658,-0.45258 -0.486892,-1.49014 -0.855279,-3.2646 -1.044701,-5.03217 -0.06677,-0.62308 -0.111164,-1.25115 -0.146512,-2.0729 l -0.01234,-0.28688 -2.894599,-0.005 -2.894599,-0.005 0.01246,0.21753 c 0.04902,0.85545 0.185743,1.72258 0.418048,2.65133 0.494952,1.97881 1.431683,3.86353 2.723195,5.47912 l 0.203563,0.25465 0.105482,-0.0246 c 0.05802,-0.0135 0.201261,-0.0466 0.318324,-0.0736 z m 22.139475,-0.259 c 1.236939,-1.56439 2.158906,-3.43965 2.643385,-5.37659 0.232306,-0.92875 0.36903,-1.79588 0.418049,-2.65133 l 0.01246,-0.21753 -2.894599,0.005 -2.894599,0.005 -0.01242,0.28687 c -0.02283,0.5275 -0.05407,1.06122 -0.08125,1.3881 -0.167932,2.01968 -0.55753,4.02648 -1.109886,5.71697 -0.07749,0.23717 -0.137187,0.44083 -0.132657,0.45259 0.0047,0.0123 0.172996,0.0476 0.394602,0.0829 0.805334,0.12818 2.369632,0.43186 3.060777,0.59419 l 0.305383,0.0717 0.04293,-0.0491 c 0.02362,-0.027 0.13513,-0.16568 0.247813,-0.30819 z m -16.772147,-0.66578 c 1.394238,-0.14857 2.803914,-0.23718 4.367895,-0.27456 l 0.249858,-0.006 v -3.64489 -3.64488 h -3.257413 -3.257412 l 0.0052,0.20359 c 0.05116,1.98987 0.404176,4.30282 0.939871,6.15806 0.104148,0.36069 0.368766,1.1817 0.400213,1.24171 0.01279,0.0244 0.03114,0.0308 0.06721,0.0234 0.02729,-0.006 0.245333,-0.031 0.484549,-0.0565 z m 11.383404,-0.36142 c 0.513922,-1.53111 0.861476,-3.157 1.062269,-4.96941 0.06408,-0.5784 0.130513,-1.5189 0.143805,-2.03588 l 0.0052,-0.20359 h -3.257413 -3.257413 v 3.64489 3.64488 l 0.249859,0.006 c 1.614421,0.0386 3.264097,0.14542 4.49745,0.29127 0.198499,0.0235 0.3734,0.0417 0.388669,0.0405 0.01918,-0.002 0.07099,-0.13097 0.167539,-0.41862 z m -14.729488,-8.97639 c 0.02395,-0.55741 0.07169,-1.29987 0.108298,-1.68423 0.185829,-1.95127 0.563612,-3.8256 1.099727,-5.4562 0.07569,-0.23022 0.134187,-0.42202 0.129984,-0.42623 -0.0042,-0.004 -0.205819,-0.0391 -0.448036,-0.0775 -0.85175,-0.13515 -2.365814,-0.42374 -3.050241,-0.58139 l -0.277406,-0.0639 -0.04294,0.0498 c -0.122671,0.14238 -0.473509,0.59735 -0.623582,0.80866 -0.809352,1.13962 -1.398297,2.26128 -1.865848,3.55354 -0.447788,1.23765 -0.745761,2.68229 -0.819816,3.97466 l -0.01246,0.21753 2.894599,-0.005 2.894599,-0.005 z m 7.96851,-3.35232 0.0047,-3.6577 -0.421104,-0.0123 c -1.72722,-0.0504 -3.177058,-0.14689 -4.491398,-0.29883 -0.131523,-0.0152 -0.245098,-0.0211 -0.252391,-0.0132 -0.02154,0.0234 -0.303194,0.89191 -0.41383,1.27602 -0.523096,1.81612 -0.836429,3.81102 -0.935322,5.95492 -0.0098,0.21287 -0.01353,0.39404 -0.0082,0.4026 0.0053,0.009 1.472862,0.0134 3.261277,0.0109 l 3.251661,-0.005 z m 7.966691,3.42635 c -0.0071,-0.29315 -0.05187,-1.02492 -0.08778,-1.43437 -0.144478,-1.64762 -0.435261,-3.25088 -0.852075,-4.698 -0.110635,-0.38411 -0.392292,-1.25258 -0.41383,-1.27602 -0.0073,-0.008 -0.120868,-0.002 -0.252391,0.0132 -1.314327,0.15194 -2.764193,0.24841 -4.491352,0.29883 l -0.421058,0.0123 v 3.64999 c 0,2.00749 0.0056,3.65556 0.01239,3.66238 0.0068,0.007 1.474733,0.0103 3.26204,0.008 l 3.24965,-0.005 z m 7.24446,0.0231 c -0.128968,-2.25071 -0.851144,-4.57014 -2.038538,-6.54721 -0.425585,-0.70862 -1.264326,-1.85643 -1.339506,-1.83311 -0.282031,0.0875 -2.357109,0.48909 -3.301782,0.63898 -0.242217,0.0384 -0.443833,0.0733 -0.448035,0.0775 -0.0042,0.004 0.05429,0.19601 0.129984,0.42623 0.692244,2.10546 1.114263,4.59035 1.203257,7.0849 0.0064,0.17814 0.0148,0.3343 0.01877,0.34703 0.0057,0.0184 0.601509,0.0231 2.897763,0.0231 h 2.890549 z m -15.20657,-11.04466 c 0,-2.04038 -0.0043,-2.47082 -0.02455,-2.47082 -0.05714,0 -0.426385,0.11498 -0.623228,0.19408 -0.620744,0.24943 -1.192625,0.64528 -1.77738,1.23029 -0.570802,0.57106 -1.042744,1.1962 -1.526123,2.02155 -0.187745,0.32056 -0.635196,1.19085 -0.619983,1.20586 0.008,0.008 0.370572,0.0467 0.980709,0.10515 0.444815,0.0426 1.183192,0.0935 1.869311,0.12879 0.688118,0.0354 0.873249,0.0419 1.476015,0.0519 l 0.245231,0.004 z m 3.174127,2.4138 c 0.675858,-0.0342 1.411399,-0.0847 1.860057,-0.12769 0.610137,-0.0584 0.972748,-0.0973 0.980708,-0.10515 0.01521,-0.015 -0.432238,-0.8853 -0.619982,-1.20586 -0.48338,-0.82535 -0.955322,-1.45049 -1.526124,-2.02155 -0.584755,-0.58501 -1.156635,-0.98086 -1.777379,-1.23029 -0.196843,-0.0791 -0.566085,-0.19408 -0.623228,-0.19408 -0.02028,0 -0.02455,0.43081 -0.02455,2.47301 v 2.47301 l 0.504344,-0.0124 c 0.277389,-0.007 0.82916,-0.0289 1.226157,-0.049 z m -9.157526,-0.65091 c 0.665718,-1.43485 1.364255,-2.52842 2.242057,-3.50998 0.06467,-0.0723 0.109507,-0.13148 0.09964,-0.13148 -0.0099,0 -0.137737,0.0409 -0.284153,0.091 -1.573092,0.53762 -3.045408,1.3441 -4.354792,2.38539 -0.349421,0.27788 -0.93635,0.79122 -0.93635,0.81895 0,0.0231 1.512897,0.31027 2.378282,0.45149 0.571249,0.0932 0.719715,0.11732 0.735969,0.11949 0.0078,0.001 0.06149,-0.10014 0.119348,-0.22484 z m 13.914089,0.16142 c 0.888702,-0.13606 2.729934,-0.47876 2.729934,-0.50812 0,-0.0272 -0.590727,-0.54353 -0.936349,-0.81839 -1.309384,-1.04129 -2.7817,-1.84777 -4.354792,-2.38539 -0.146416,-0.05 -0.274285,-0.091 -0.284153,-0.091 -0.0099,0 0.03497,0.0592 0.09964,0.13148 0.879584,0.98355 1.564579,2.05614 2.241837,3.51035 0.09525,0.20453 0.109915,0.22622 0.147506,0.21816 0.02296,-0.005 0.183328,-0.0306 0.356378,-0.0571 z"
       id="path2" /></g></svg>
